<svg xmlns="http://www.w3.org/2000/svg" width="56.266" height="54.881" viewBox="0 0 56.266 54.881">
  <defs>
    <style>
      .cls-1 {
        fill: #ffbaba;
        fill-rule: evenodd;
      }
    </style>
  </defs>
  <path id="github" class="cls-1" d="M28.131,7.875A28.134,28.134,0,0,0,19.238,62.7c1.407.261,1.924-.612,1.924-1.355,0-.671-.028-2.887-.039-5.235-7.827,1.7-9.477-3.321-9.477-3.321-1.279-3.252-3.123-4.117-3.123-4.117-2.552-1.748.194-1.709.194-1.709a5.908,5.908,0,0,1,4.311,2.9c2.511,4.3,6.583,3.056,8.187,2.338A6,6,0,0,1,23,48.434c-6.249-.709-12.818-3.122-12.818-13.9a10.894,10.894,0,0,1,2.9-7.55,10.1,10.1,0,0,1,.271-7.444s2.362-.757,7.739,2.884a26.69,26.69,0,0,1,14.085,0c5.369-3.638,7.73-2.884,7.73-2.884a10.1,10.1,0,0,1,.277,7.444,10.863,10.863,0,0,1,2.895,7.55c0,10.805-6.583,13.181-12.846,13.878a6.719,6.719,0,0,1,1.911,5.207c0,3.762-.032,6.794-.032,7.719,0,.749.507,1.624,1.933,1.35a28.135,28.135,0,0,0-8.911-54.82l0,.009Z" transform="translate(0 -7.865)"/>
</svg>
