<svg xmlns="http://www.w3.org/2000/svg" width="39.271" height="38.344" viewBox="0 0 39.271 38.344">
  <defs>
    <style>
      .cls-1 {
        fill: none;
        stroke: #fff;
        stroke-width: 1.5px;
        fill-rule: evenodd;
      }
    </style>
  </defs>
  <path id="github" class="cls-1" d="M18.885,7.871a18.886,18.886,0,0,0-5.97,36.8c.944.175,1.292-.411,1.292-.91,0-.45-.019-1.938-.026-3.515-5.254,1.142-6.362-2.229-6.362-2.229a5,5,0,0,0-2.1-2.764c-1.713-1.173.13-1.147.13-1.147a3.966,3.966,0,0,1,2.894,1.945,4.022,4.022,0,0,0,5.5,1.57,4.024,4.024,0,0,1,1.2-2.526c-4.195-.476-8.6-2.1-8.6-9.333A7.313,7.313,0,0,1,8.781,20.7a6.781,6.781,0,0,1,.182-5s1.586-.508,5.2,1.936a17.917,17.917,0,0,1,9.455,0C27.219,15.194,28.8,15.7,28.8,15.7a6.781,6.781,0,0,1,.186,5,7.292,7.292,0,0,1,1.943,5.068c0,7.254-4.419,8.848-8.623,9.316a4.511,4.511,0,0,1,1.283,3.5c0,2.525-.022,4.561-.022,5.182,0,.5.34,1.09,1.3.906a18.887,18.887,0,0,0-5.982-36.8v.006Z" transform="translate(0.75 -7.115)"/>
</svg>
