<svg xmlns="http://www.w3.org/2000/svg" width="1948.23" height="88.083" viewBox="0 0 1948.23 88.083">
  <defs>
    <style>
      .cls-1 {
        fill: #ffbaba;
      }
    </style>
  </defs>
  <g id="_65" data-name="65" transform="matrix(1, 0.017, -0.017, 1, 0.944, 0)">
    <path id="Fill_13" data-name="Fill 13" class="cls-1" d="M1499.383,0C1524,1.809,1547.206,3.775,1572.1,5.267c26.279,1.576,53.821,2.788,82.454,3.6,23.648.671,46.761,1.621,71.4,1.3,18.549,1.264,38.534.541,57.839.634,7.911.037,15.919-.571,23.916-.589,8.629-.02,16.339-.574,23.964-.64,28.221-.246,53.754-1.939,81.592-2.307,2.047-.027,3.846-.362,6.5-.628l23.8,2.032-22.08,2.117h26.1c-2.918.882-4.716,1.424-7.146,2.159.937.2,2.631.552,5.5,1.151-3.693,1.217-5.778,2.9-12.963,4.039-10.006,1.586-23.3,2.863-36.276,4.078-5.53.52-13.852.8-20.778.759-15.392-.082-29.149,1.209-44.867.764-2.3-.066-5.453.373-8.629.61l-3.176-1.168h-97.616c9.653.681,19.822.481,29.781.514,11.288.033,22.606,0,33.9.01,10.035.011,20.08.047,30.077.674q-29.517,0-59.063,0c-23.39-.02-47.249.327-68.735-1.343-23.5.046-44.695-1.123-66.726-1.951-11.288-.424-19.535-1.108-27.236-2.115-1.234.16-2.449.32-4.716.616-15.593-1.09-30.909-2.431-47.746-3.245-11.633-.561-16.2-2.207-28.6-2.5-4.554-.108-8.629-.543-15.383-.994-7.577-.322-19.822.737-28.872-.629-1.234.159-2.459.319-4.42.573-2.047-.151-4.333-.322-6.735-.5-1.215.391-2.411.776-3.74,1.2h-8.638c2.037-.435,3.4-.728,4.783-1.023-1.464-.087-3.386-.3-4.3-.242-6.524.413-12.9.871-19.219,1.336-5.663.417-11.212.861-18.119,1.394l-7.605-.639c-1.416.383-3.032.82-4.687,1.271l-3.98-.475c-5.348.562-10.361,1.518-16.206,1.616-16.034.267-27.7,1.708-42.437,2.3-7.462.3-13.91,1.145-20.07,1.852-20.444,2.348-42.81,4.275-67.989,5.61l-6.209-.75c-3.013.393-6.065.794-10,1.309h-22.376c-3.243.69-6.2,1.323-9.528,2.03h-9.146c-2.994.49-5.07,1.191-8.61,1.348-16.387.729-31.378,2.231-51.219.82-8.447-.6-21.572-.1-32.622.456l31.359.248-.134.392H1091.44l-3.951-1.454c-12.264,1.526-24.825.935-37.032.247-17.162-.971-33.77-1.972-48.846-3.556-19.487-2.047-40.17-3.993-63.923-5.237-2.258-.118-4.142-.351-8.017-.69H899.135a8.229,8.229,0,0,1-1.7-.353c.258-.1,1.205-.158,1.731-.246.89-.151,1.684-.313,3.224-.605H883.714l-3.559-1.361-10.714-.229c3.176.588,4.621.855,6.218,1.149-1.339.19-2.994.427-5.491.784,5.836.15,11.078.284,16.32.42-34.171.708-66.86,2.47-101.558,1.724-6.295,2.3-19.525,2.875-36.5,2.795-22.166,2.647-44.283,5.42-67.52,8.025-24.222,2.714-51.774,4.96-82.693,5.887-26.059.78-53.63,2.058-81.028.318-2.114-.134-5.156-.031-7.758-.016-26.47.167-49.315-1.336-72.083-2.746-9.528-.589-16.942-1.743-26.375-2.373-12.943-.865-27.188-1.278-41.461-1.746-25.543-.837-50.894-.448-76.293-.563-23.457-.107-46.388.388-68.754,1.323-2.363.1-5.415.1-7.72-.009-2.248-.105-3.941-.408-6.438-.685L206.55,34.6l-12.676-.625c-.459.227-1.081.53-2.124,1.047-21.152.785-38.457,3.416-64.325,2.884l-7.72,1,5.558.8c-12.4,1.2-26.451,2.189-36.582,3.64-10.762,1.543-20.721,3.116-36.41,4.507-1.32.366-4.047,1.119-7.29,2.013l-13.049.971c-1.464,2.04-1.464,2.04-9.308,3.263L0,51.167V45.255c1.129-.1,8.715-.449,8.983-.876,1.119-1.74,14.962-2.267,18.779-3.695,4.047-1.516,14.139-2.42,22.012-3.556,10.714-1.549,21.257-3.122,31.349-4.742,22.749-3.647,69.807-7.426,112.674-8.7,10.131-.3,19.63-.94,29.666-1.314,9.471-.352,19.87.458,29.6-.62,4.018-.444,13.422-.073,14.369-.073l16.311,1.083c-3.415.614-5.3.954-8.007,1.443H307.62l-16.474-.745c14.3-1.942,27.992-3.417,49.325-1.908,2.038.144,4.917.118,7.414.123,32.268.06,60.393,1.485,86.892,3.882a375.568,375.568,0,0,0,39.242,1.5c14.034-.253,26.289.625,39.615.711,40.457.259,75.575-1.687,107.91-4.578,17.134-1.533,33.923-3.184,49.076-5.028,26.327-3.2,57.935-5.138,91.255-6.575,23.955-1.033,49.545-1.407,74.044-2.184,25.677-.814,51.018-.237,76.264-.611a410.571,410.571,0,0,1,41.576,1.709c27.15,2.182,52.931,4.646,79.909,6.867,12.417,1.021,27.456,1.311,41.8,1.576,26.26.485,51.506-.425,75.834-1.538,19.64-.9,38.285-2.166,57.236-3.308,31.789-1.916,60.8-4.429,90.46-6.838,29.866-2.426,61.9-4.527,97.98-5.233C1408,1.8,1418.633,1.194,1429.233.693c23.17-1.1,47.134-.516,70.151-.69" transform="translate(0 0)"/>
  </g>
</svg>
