<svg xmlns="http://www.w3.org/2000/svg" width="254.386" height="61.827" viewBox="0 0 254.386 61.827">
  <defs>
    <style>
      .cls-1 {
        fill: #ffbaba;
      }
    </style>
  </defs>
  <g id="_65" data-name="65" transform="matrix(-0.995, 0.105, -0.105, -0.995, 254.386, 35.482)">
    <path id="Fill_13" data-name="Fill 13" class="cls-1" d="M194.036,35.676c3.185-1.191,6.189-2.487,9.41-3.471a71.373,71.373,0,0,1,10.67-2.374,43.6,43.6,0,0,1,9.24-.861c2.4-.834,4.987-.357,7.485-.418,1.024-.025,2.06.376,3.1.389,1.117.013,2.115.379,3.1.422,3.652.162,6.956,1.278,10.559,1.521.265.018.5.239.841.414l3.08-1.34-2.857-1.4h3.377l-.925-1.424.712-.759a8.134,8.134,0,0,0-1.678-2.663,24.264,24.264,0,0,0-4.694-2.689,6.382,6.382,0,0,0-2.689-.5c-1.992.054-3.772-.8-5.806-.5-.3.043-.706-.246-1.117-.4l-.411.771H222.8a11.693,11.693,0,0,1,3.854-.339c1.461-.022,2.925,0,4.387-.007a12.748,12.748,0,0,0,3.892-.444c-2.547,0-5.1-.009-7.643,0-3.027.013-6.114-.216-8.9.886-3.041-.03-5.784.74-8.635,1.287a9.136,9.136,0,0,0-3.525,1.395l-.61-.407a63.366,63.366,0,0,1-6.179,2.14c-1.505.37-2.1,1.455-3.7,1.651a11.523,11.523,0,0,0-1.991.655c-.98.213-2.565-.486-3.736.415l-.572-.378-.872.33-.484-.793h-1.118c.264.287.439.48.619.675-.189.057-.438.2-.557.16-.844-.272-1.669-.574-2.487-.881-.733-.275-1.451-.568-2.345-.919l-.984.421c-.183-.253-.392-.541-.607-.838l-.515.313a6.164,6.164,0,0,0-2.1-1.066c-2.075-.176-3.585-1.126-5.492-1.517a8.77,8.77,0,0,1-2.6-1.221,35.716,35.716,0,0,0-8.8-3.7l-.8.495-1.294-.863h-2.9c-.42-.455-.8-.873-1.233-1.339H153.7c-.387-.323-.656-.785-1.114-.889-2.121-.481-4.061-1.472-6.628-.541-1.093.4-2.792.066-4.222-.3l4.058-.164-.017-.258h-4.532l-.511.959c-1.587-1.006-3.213-.617-4.792-.163a32.138,32.138,0,0,0-6.321,2.345,38.313,38.313,0,0,1-8.272,3.453,8.438,8.438,0,0,0-1.037.455h-3.952c-.13.131-.239.2-.22.233.033.064.156.1.224.162.115.1.218.206.417.4h-2.417l-.461.9-1.387.151.8-.757-.711-.517,2.112-.277c-4.422-.467-8.652-1.629-13.143-1.137-.815-1.518-2.527-1.9-4.723-1.843-2.868-1.746-5.731-3.575-8.738-5.292a31.017,31.017,0,0,0-10.7-3.882c-3.372-.514-6.94-1.357-10.486-.209a3.412,3.412,0,0,1-1,.011c-3.426-.11-6.382.881-9.328,1.811-1.233.389-2.193,1.149-3.413,1.565a34.515,34.515,0,0,1-5.365,1.152c-3.305.552-6.586.3-9.873.371a38.322,38.322,0,0,1-8.9-.873,2.475,2.475,0,0,0-1,.006,3.569,3.569,0,0,0-.833.452l-.487-.957-1.64.412c-.059-.15-.14-.349-.275-.69-2.737-.518-4.977-2.253-8.324-1.9l-1-.659.719-.531a33.477,33.477,0,0,1-4.734-2.4A24.343,24.343,0,0,0,6.764,4.12L5.821,2.793l-1.689-.64C3.943.807,3.943.807,2.928,0L0,1.935v3.9c.146.068,1.128.3,1.162.577.145,1.148,1.936,1.5,2.43,2.437.524,1,1.83,1.6,2.849,2.345,1.387,1.022,2.751,2.059,4.057,3.127,2.944,2.4,9.034,4.9,14.581,5.74,1.311.2,2.54.62,3.839.866,1.226.232,2.571-.3,3.83.409a4.031,4.031,0,0,0,1.859.048l2.111-.714-1.036-.951h4.126l-2.132.492c1.851,1.281,3.622,2.253,6.383,1.258a3.223,3.223,0,0,1,.959-.081,26.857,26.857,0,0,0,11.245-2.56,10.247,10.247,0,0,1,5.078-.987c1.816.167,3.4-.412,5.127-.469A30.6,30.6,0,0,1,80.434,20.39a56.964,56.964,0,0,1,6.351,3.316,37.775,37.775,0,0,0,11.809,4.336c3.1.681,6.412.928,9.582,1.44,3.323.537,6.6.156,9.869.4a11.288,11.288,0,0,0,5.38-1.127c3.513-1.439,6.85-3.064,10.341-4.528a18.953,18.953,0,0,1,5.409-1.04,30.417,30.417,0,0,1,9.814,1.014c2.542.591,4.954,1.428,7.407,2.182,4.114,1.264,7.869,2.921,11.707,4.509a44.285,44.285,0,0,0,12.68,3.451,31.083,31.083,0,0,1,4.175.874c3,.724,6.1.34,9.078.455" transform="translate(0 0)"/>
  </g>
</svg>
