<svg xmlns="http://www.w3.org/2000/svg" width="1479.466" height="806.431" viewBox="0 0 1479.466 806.431">
  <defs>
    <style>
      .cls-1 {
        opacity: 0.102;
      }

      .cls-2 {
        fill: #e8e8e8;
      }

      .cls-3 {
        opacity: 0.119;
      }

      .cls-4 {
        opacity: 0.077;
      }

      .cls-5 {
        opacity: 0.125;
      }

      .cls-6 {
        opacity: 0.147;
      }
    </style>
  </defs>
  <g id="background-scribbles" transform="translate(-201.511 -209)">
    <g id="_44" data-name="44" class="cls-1" transform="translate(1558 734)">
      <path id="Fill_217" data-name="Fill 217" class="cls-2" d="M38.842,170.56a46.173,46.173,0,0,1-5.453-.325c-4.085-.487-8.394-1.252-12.229-3.537a39.092,39.092,0,0,1-14.249-14.29,5.006,5.006,0,0,0-.35-.509l-.1-.135a19.349,19.349,0,0,1-3.328-6.231,20.054,20.054,0,0,0-1.317-3.352c-1.4-2.919-1.4-6.1,0-9.724a25.543,25.543,0,0,1,5.719-8.485,17.64,17.64,0,0,0,3.547-5.322,21.068,21.068,0,0,0,1.542-6.16c.44-4.12-.3-8.14-1.01-12.027-.167-.913-.33-1.839-.488-2.734v-.006c-.264-1.5-.538-3.059-.838-4.582-.8-4.057-2.73-7.7-4.432-10.922A57.358,57.358,0,0,1,.485,67.786a22.09,22.09,0,0,1,.97-12.4,17.788,17.788,0,0,1,3.666-6.427,37.485,37.485,0,0,1,5.46-5.045A55.517,55.517,0,0,1,26.574,36.2a88.388,88.388,0,0,0,9.582-3.493,46.424,46.424,0,0,0,8.869-5.04,141.528,141.528,0,0,0,11.835-9.774c2.966-2.722,5.5-4.86,7.967-6.729a62.157,62.157,0,0,1,8.778-5.627A56.481,56.481,0,0,1,82.773,1.6a32.125,32.125,0,0,1,9.8-1.6h.26a34.573,34.573,0,0,1,14.308,2.983A29.123,29.123,0,0,1,118.382,12.3a23.151,23.151,0,0,1,4.259,10.084A30.752,30.752,0,0,1,122.27,33.4c-.277,1.378-.553,2.727-.871,4.08a27.393,27.393,0,0,1-4.31,9.607c-.634.895-1.3,1.783-1.952,2.642-.59.782-1.2,1.588-1.775,2.394a59.414,59.414,0,0,1-4.644,5.576,61,61,0,0,0-5.173,6.538,6.184,6.184,0,0,1-.93.983,5.718,5.718,0,0,0-1.046,1.148q-.334.53-.67,1.059a57.819,57.819,0,0,0-4.932,8.914l-.1.248a18.234,18.234,0,0,0-1.636,5.705c-.045.627-.05,1.261-.056,1.875-.006.686-.012,1.395-.073,2.091a22.525,22.525,0,0,0,.437,5.581l.044.269a1.53,1.53,0,0,1-.463,1.138c-.092.113-.158.2-.146.233A.033.033,0,0,0,94,93.5a.768.768,0,0,1,.529.321.7.7,0,0,1-.084.565,1,1,0,0,0-.113.408,1.252,1.252,0,0,1-.052.346.89.89,0,0,0-.039.416,34.619,34.619,0,0,1,.639,8.775c-.013,1.043-.027,2.121,0,3.177.012.576.03,1.164.048,1.733a31.324,31.324,0,0,1-.648,9.354c-.167.6-.315,1.226-.459,1.827-.171.716-.348,1.455-.556,2.171-.164.563-.382,1.123-.591,1.665a11.258,11.258,0,0,0-.865,3.059,14.694,14.694,0,0,1-1.54,4.8c-.231.508-.47,1.034-.684,1.56a.474.474,0,0,1-.209.186c-.037.023-.075.046-.108.071l-.057.156a17.353,17.353,0,0,1-3.087,5.921,15.91,15.91,0,0,0-2.38,3.682,1.821,1.821,0,0,1-.477.569,1.91,1.91,0,0,0-.422.473,10.165,10.165,0,0,0-.58,1.276,7.516,7.516,0,0,1-.917,1.8l-.815,1.085c-1.334,1.778-2.712,3.616-4.132,5.38-.443.55-.881,1.12-1.3,1.671-.654.851-1.331,1.731-2.04,2.559a19.77,19.77,0,0,1-8.038,5.462c-.885.348-1.777.708-2.641,1.056-2.632,1.06-5.354,2.157-8.1,3.033A50.1,50.1,0,0,1,38.842,170.56Zm2.026-4.907c.236,0,.474.007.705.013s.471.013.706.013a7.932,7.932,0,0,0,.827-.037c2.931-.3,5.871-.858,8.714-1.4l.284-.054a54.959,54.959,0,0,0,9.663-3.1l0,0c.995-.389,2.024-.79,3.041-1.165a10.6,10.6,0,0,0,5.095-3.4A69.879,69.879,0,0,0,80.2,138.01c1.113-3.03,2.437-6.04,3.718-8.951.992-2.255,2.018-4.587,2.939-6.914a45.066,45.066,0,0,0,2.9-11.885,62.8,62.8,0,0,0,.2-7.3c-.011-.966-.023-1.963-.016-2.944,0-.658.005-1.327.006-1.975,0-2.117.005-4.3.14-6.459a22.091,22.091,0,0,0-.267-4.095c-.083-.654-.169-1.33-.225-1.991a26.882,26.882,0,0,1,.842-10.59A44.264,44.264,0,0,1,94.5,65.768,101.092,101.092,0,0,1,106.7,49.713a74.056,74.056,0,0,0,6.783-8.439,31.37,31.37,0,0,0,5.288-18.349,13.651,13.651,0,0,0-6.881-11.975,34.9,34.9,0,0,0-7.821-3.6,27.475,27.475,0,0,0-8.138-1.257,28.509,28.509,0,0,0-8.9,1.472A57.406,57.406,0,0,0,68.531,17.916c-1.762,1.434-3.473,2.98-5.128,4.475-1.611,1.455-3.277,2.96-4.987,4.36C53.86,30.482,48.944,34.346,43.34,37a93.243,93.243,0,0,1-13.374,4.811,50.57,50.57,0,0,0-11.084,4.734,25.882,25.882,0,0,0-9.808,9.446c-.276.481-.288.482-.9.494H8.143c-.153,0-.193.1-.235.21-.011.028-.022.057-.036.084a8.483,8.483,0,0,0-.992,3.74,9.011,9.011,0,0,0,.08,1.064,2.81,2.81,0,0,1-.051,1.557,3.385,3.385,0,0,0-.248,3.078c.074.289.144.562.186.83A32.252,32.252,0,0,0,7.9,71.462a57.749,57.749,0,0,0,4.221,10.6c1.786,3.294,3.3,6.3,3.768,9.676a3.7,3.7,0,0,0,.306.911c.332.771.674,1.568-.249,2.334h0a.107.107,0,0,1,.014.015,1.617,1.617,0,0,1,.117.146,6.868,6.868,0,0,1,1.092,3.5,10.876,10.876,0,0,0,.263,1.733,10.766,10.766,0,0,1,.26,1.713,17.329,17.329,0,0,0,.246,2.009,9.825,9.825,0,0,1,.13,3.631A10.853,10.853,0,0,0,17.923,110c0,.151,0,.3,0,.453a17.648,17.648,0,0,1-.4,3.217,20.885,20.885,0,0,0-.392,2.757,4.911,4.911,0,0,1-.65,1.728c-.147.287-.3.584-.418.866a26.194,26.194,0,0,1-4.268,6.36c-.465.564-.945,1.146-1.4,1.73q-.266.339-.536.678c-1.747,2.2-3.554,4.476-3.738,7.519-.018.3-.053.617-.087.919a5.1,5.1,0,0,0,.3,3.131c.675,1.227,1.245,2.534,1.8,3.8a25.849,25.849,0,0,0,3.646,6.541c.756.9,1.43,1.885,2.081,2.839a21.618,21.618,0,0,0,3.712,4.5c.44.373.884.758,1.314,1.129a35.267,35.267,0,0,0,6.115,4.566l.06.032a16.376,16.376,0,0,0,4.258,1.8,49.1,49.1,0,0,0,10.7,1.1C40.292,165.659,40.582,165.657,40.868,165.653Zm44.895-37.788h0a37.107,37.107,0,0,1-2.265,5.5,37.319,37.319,0,0,0-2.167,5.213c.737-.519,2.016-3.017,2.957-5.262.877-2.094,1.789-4.778,1.476-5.451Zm4.64,2.641c-.221.471-.46.942-.691,1.4A18.179,18.179,0,0,0,88,136.143l.635-1.116.03-.053.589-1.035,0,.006a4.585,4.585,0,0,1,.572-1.64A4.311,4.311,0,0,0,90.4,130.505ZM3.262,132.067a6.827,6.827,0,0,0-1.106,3.806c.286-.8.51-1.637.728-2.444C3,132.981,3.128,132.519,3.262,132.067ZM4.074,53.66a.507.507,0,0,0-.1.01.816.816,0,0,0-.727.828.283.283,0,0,0,.057.216.231.231,0,0,0,.177.062.662.662,0,0,0,.115-.011,1.258,1.258,0,0,0,.792-.63l.063-.088C4.387,53.787,4.262,53.66,4.074,53.66ZM11.2,45.645a18.494,18.494,0,0,0-5.754,5.81C7.069,49.708,8.9,47.863,11.2,45.645Zm40.835-21.1-.125.094c-3.075,2.31-6.255,4.7-9.595,6.749a1.515,1.515,0,0,0-.223.182c-.035.033-.07.065-.107.1A38.862,38.862,0,0,0,52.037,24.55ZM62.7,22.2c-.394.361-.823.7-1.238,1.021a11.024,11.024,0,0,0-2.223,2.1l-.072.045-.037.045A5.407,5.407,0,0,0,57.2,26.894c-.119.124-.241.252-.364.375a7.316,7.316,0,0,0,2.285-1.853l.05-.018.009,0,.049-.068A18.313,18.313,0,0,0,62.7,22.2Zm26-20.308h0l-.331.046h-.005c-.238.032-.462.063-.688.1a44,44,0,0,0-12.376,4.41c-.181.091-.369.18-.551.266a6.131,6.131,0,0,0-2.2,1.468l-.052.015-.009.013-.009.013a3.642,3.642,0,0,0-1.769.82,5.533,5.533,0,0,1-1.1.659.406.406,0,0,0-.1.67.29.29,0,0,0,.182.1.1.1,0,0,0,.089-.058,3.156,3.156,0,0,1,1.422-1.212,3.611,3.611,0,0,0,1.277-.979H72.5l.023-.025.012-.014.152-.039A1.908,1.908,0,0,0,73.118,8,61.592,61.592,0,0,1,88.13,2.225c.031-.007.065-.013.1-.02a.514.514,0,0,0,.466-.312Z" transform="translate(0 0)"/>
      <path id="Fill_219" data-name="Fill 219" class="cls-2" d="M22.787,142.922A31.07,31.07,0,0,1,15.4,141.9a20.394,20.394,0,0,1-7.374-3.523A15.3,15.3,0,0,1,5.791,136.2l-.009-.01a23.749,23.749,0,0,1-5.5-10.319,9.675,9.675,0,0,1,1.027-7.182c.037-.067.073-.136.11-.206.268-.513.544-1.041,1.339-1.041a2.03,2.03,0,0,1,.243.015l.045,0c.4,0,.783-.61,1.123-1.149.06-.1.116-.184.17-.266a67.82,67.82,0,0,0,6.541-12.822,61.8,61.8,0,0,0,4.036-14.616,29.123,29.123,0,0,0-.952-10.8,21.875,21.875,0,0,0-3.911-7.564c-.678-.926-1.328-1.9-1.957-2.833-.554-.826-1.126-1.679-1.715-2.5-.289-.4-.157-.707.011-1.093a3.015,3.015,0,0,0,.238-.723c-.33.448-.524.631-.668.631-.167,0-.273-.247-.428-.654a9.145,9.145,0,0,0-.824-1.523c-.145-.232-.3-.473-.431-.712A10.53,10.53,0,0,1,2.834,55.7a3.569,3.569,0,0,0-.147-.863,2.588,2.588,0,0,1-.124-1.032c.029-.205.055-.415.08-.617a11.4,11.4,0,0,1,.322-1.81c.05-.17.1-.341.144-.507A5.273,5.273,0,0,1,4.977,47.6c.184-.128.224-.392.267-.673a1.532,1.532,0,0,1,.309-.846c.3-.317.593-.644.881-.959a25.348,25.348,0,0,1,4.913-4.512,111.5,111.5,0,0,1,16.981-8.835A34.563,34.563,0,0,0,39.644,24.7c4.422-4.341,9.327-8.716,15-13.375a54.21,54.21,0,0,1,16.2-9.661A29.049,29.049,0,0,1,78.653.026c.253-.017.506-.026.753-.026a9.247,9.247,0,0,1,4.6,1.187A12.05,12.05,0,0,1,87.577,4.4a20.676,20.676,0,0,1,4.035,8.837,23.009,23.009,0,0,1-.4,9.714,50.737,50.737,0,0,1-5.03,12.93L86,36.2l-.009.016A16.4,16.4,0,0,1,82.3,41.171a6.441,6.441,0,0,0-1.353,1.821c-.19.329-.387.669-.6.979-1.1,1.583-2.36,3.081-3.579,4.529-1.254,1.49-2.55,3.03-3.675,4.667-.6.877-1.157,1.8-1.693,2.689-.343.57-.7,1.16-1.062,1.732a59.219,59.219,0,0,0-4.109,8.244c-.274.63-.557,1.281-.841,1.92a36.508,36.508,0,0,0-2.305,9.557l0,.028c-.565,3.828-1.112,7.279-1.67,10.55-.064.372-.125.753-.184,1.121v.006a24.906,24.906,0,0,1-1.125,4.892,11.979,11.979,0,0,0-.481,1.82,9.754,9.754,0,0,1-.638,2.184,2.707,2.707,0,0,0-.187.888,1.755,1.755,0,0,1-.646,1.455c-.009-.057-.015-.112-.02-.165-.02-.2-.038-.381-.255-.491a1.923,1.923,0,0,1-.073.313c-.091.311-.176.605.243.883.248.163.128.409.023.625a1.609,1.609,0,0,0-.087.2c-.774,2.419-1.542,4.9-2.2,7.032-.207.671-.43,1.35-.645,2.007-.5,1.531-1.021,3.112-1.382,4.709a12.778,12.778,0,0,1-.816,2.259c-.142.327-.289.664-.42,1a4.063,4.063,0,0,0-.357,1.511c0,.641-.024.922-.255.922a2.286,2.286,0,0,1-.837-.372.319.319,0,0,0-.156-.029H50.84l-.071,0-.06,0a1.162,1.162,0,0,1-.008.12.334.334,0,0,0,.014.2,3.031,3.031,0,0,1-.25,3.4,6.3,6.3,0,0,0-1.176,2.272,6.225,6.225,0,0,1-2.328,3.3.363.363,0,0,1-.133.056c-.094.026-.191.053-.2.176a2.787,2.787,0,0,1-1.216,1.929c-.14.124-.285.252-.418.383a10.867,10.867,0,0,1-.893.757,8.382,8.382,0,0,0-1.156,1.034,13.408,13.408,0,0,1-3.629,2.971,7.309,7.309,0,0,0-.822.569,5.484,5.484,0,0,1-1.235.779c-1.047.411-2.1.847-3.127,1.27-1.617.668-3.287,1.358-4.963,1.963A18.5,18.5,0,0,1,22.787,142.922ZM11.69,66.233c.068,0,.118.067.172.138.019.026.039.051.059.073a1.041,1.041,0,0,1,.212.479,1,1,0,0,0,.32.6A4.978,4.978,0,0,1,14,69.7a4.167,4.167,0,0,0,1.043,1.333,8.935,8.935,0,0,1,.634.665c.14.169.274.414.12.618-.117.155-.158.277-.126.374.044.13.216.2.4.246a1.144,1.144,0,0,1,.759.776c.121.309.253.62.382.92A10.392,10.392,0,0,1,18.13,77.6a8.5,8.5,0,0,0,.578,2.651,10.878,10.878,0,0,1,.88,5.633c-.03.628-.1,1.273-.158,1.9a21.857,21.857,0,0,0-.166,3.162,6.8,6.8,0,0,1-.457,2.421,9.962,9.962,0,0,0-.407,1.552,9.164,9.164,0,0,1-.782,2.292,9.08,9.08,0,0,0-.817,2.457,3.427,3.427,0,0,1-.669,1.41,2.42,2.42,0,0,0-.559,1.248,4.631,4.631,0,0,1-1.01,2.623,5.5,5.5,0,0,0-.955,2.029,3.952,3.952,0,0,1-.794,1.886,7.582,7.582,0,0,0-1.106,1.768,7.383,7.383,0,0,1-1.17,1.841,13.392,13.392,0,0,0-1.544,2.123,12.521,12.521,0,0,1-1.75,2.34A14.391,14.391,0,0,0,5.734,118.8c-.213.294-.433.6-.657.886a4.555,4.555,0,0,0-.666,2.268c-.038.317-.077.646-.137.954a5.14,5.14,0,0,0,.569,3.03,12.239,12.239,0,0,1,.448,1.2,18.632,18.632,0,0,0,5.44,8.331,15.657,15.657,0,0,0,10.8,4.578,16.834,16.834,0,0,0,5.76-1.073l.112-.041c.586-.214,1.193-.435,1.8-.638a30.43,30.43,0,0,0,10.006-5.9c3.393-2.881,5.274-6.793,7.093-10.576.294-.611.6-1.238.9-1.85a17.453,17.453,0,0,0,1.075-3.207c.172-.645.349-1.313.562-1.946q.1-.287.194-.573a29.5,29.5,0,0,0,.9-2.977c.251-1.115.591-2.219.92-3.287l.09-.292c.145-.472.316-.945.482-1.4a19.974,19.974,0,0,0,.68-2.12,12.231,12.231,0,0,1,.471-1.432,10.866,10.866,0,0,0,.53-1.689c.206-1.028.507-2.071.8-3.08.127-.439.258-.893.379-1.34A112.079,112.079,0,0,0,57.447,80.5c.076-.64.149-1.292.22-1.923V78.57c.263-2.349.535-4.778,1.029-7.118a57.18,57.18,0,0,1,4.743-13.6,67.784,67.784,0,0,1,7.8-12.12c2.229-2.79,4.608-5.538,6.909-8.195q.778-.9,1.555-1.8a32.67,32.67,0,0,0,4.888-7.7,56.5,56.5,0,0,0,3.079-8.579,16.952,16.952,0,0,0-.49-10.85C85.953,5.4,84.218,4.729,82.842,4.5a9.717,9.717,0,0,0-1.6-.126,22.356,22.356,0,0,0-4.2.534q-.389.075-.773.147a16.454,16.454,0,0,0-3.914,1.45l-.879.424a39.4,39.4,0,0,0-7.905,4.588,3.916,3.916,0,0,1-1.023.544,3.908,3.908,0,0,0-1.023.545,9.553,9.553,0,0,0-.964.941,7.481,7.481,0,0,1-1.287,1.179,3.311,3.311,0,0,1-.689.321,2.537,2.537,0,0,0-.888.478c-1.072.99-2.213,1.939-3.317,2.856a48.084,48.084,0,0,0-5.645,5.23,20.87,20.87,0,0,1-1.869,1.813c-.4.359-.819.731-1.209,1.114A36.624,36.624,0,0,1,32.5,34.885a76.919,76.919,0,0,0-17.079,8.9q-.366.252-.736.5a17.473,17.473,0,0,0-4.928,4.346c-.145.212-.3.43-.452.64a7.185,7.185,0,0,0-1.611,3.268l-.005.057a14.925,14.925,0,0,0,.309,6.3,1.98,1.98,0,0,1-.009.932.851.851,0,0,0-.019.443,9.781,9.781,0,0,1,.488.922,7.874,7.874,0,0,0,.619,1.117c.227.322.478.638.721.943a6.457,6.457,0,0,1,1.735,3.434,1.388,1.388,0,0,0,.008-.145c0-.112,0-.227.061-.273A.149.149,0,0,1,11.69,66.233Zm41.722,37.961a39.91,39.91,0,0,0-2.583,7.335c-.468,1.694-1.053,3.377-1.62,5-.288.826-.584,1.678-.862,2.52a51.64,51.64,0,0,1-1.956,4.818c-.308.69-.626,1.4-.925,2.112,3.324-5.36,5.014-11.408,6.649-17.257C52.532,107.235,52.962,105.7,53.412,104.194ZM2.183,119.35A7.168,7.168,0,0,0,.8,123.74a2.2,2.2,0,0,0,.383,1.483c.055-.457.1-.926.139-1.379A15.889,15.889,0,0,1,2.183,119.35ZM14.89,94.37h0a45.3,45.3,0,0,1-1.684,4.962c-.417,1.089-.849,2.214-1.213,3.341a16.514,16.514,0,0,1-.672,1.657,10.427,10.427,0,0,0-.921,2.695l-.028.012-.014.055-.007.027a18.406,18.406,0,0,0-1.835,3.335c-.334.721-.679,1.466-1.078,2.167.225-.368.462-.737.691-1.095a16.115,16.115,0,0,0,2.222-4.407l.042-.056,0,0,0-.033a.9.9,0,0,0,.433-.567c.016-.041.032-.081.049-.12.172-.4.348-.8.519-1.191l0,0a45.892,45.892,0,0,0,2.375-6.222c.121-.442.271-.886.417-1.315a9.673,9.673,0,0,0,.695-3.237ZM11.631,41.955c-2.619,1.775-5.476,4.081-6.806,7.726A46.85,46.85,0,0,1,11.631,41.955Zm31.7-18.966c-.564.5-1.135,1.009-1.687,1.5-1.478,1.322-3.006,2.688-4.558,3.975A26.068,26.068,0,0,0,43.333,22.99ZM50.893,16c-.595.544-1.214,1.08-1.812,1.6a36.686,36.686,0,0,0-4.472,4.352l6.528-5.693-.12-.128ZM70.907,3.079c-3.79.5-14.21,7.408-15.773,9.654A68.643,68.643,0,0,1,70.907,3.079Z" transform="translate(13.969 15.004)"/>
      <path id="Fill_221" data-name="Fill 221" class="cls-2" d="M4.114,112.539a6.035,6.035,0,0,1-3.559-1.067A1.174,1.174,0,0,1,.136,109.9,7.961,7.961,0,0,1,3.2,105.956c.083-.054.166-.107.249-.16l0,0a3.8,3.8,0,0,0,1.289-1.129.354.354,0,0,1,.334-.181c.052,0,.105.005.162.011h.008a1.868,1.868,0,0,0,.187.012.7.7,0,0,0,.528-.221,22.754,22.754,0,0,0,3.882-5.758l.107-.2a103.022,103.022,0,0,0,5.76-13.689A34.018,34.018,0,0,0,17.144,78.4c.2-1.287.345-2.6.438-4.019.027-.405.152-.888.6-.888a1.075,1.075,0,0,1,.463.13.625.625,0,0,0,.275.076c.2,0,.313-.143.435-.295.033-.041.067-.083.1-.122a.334.334,0,0,0-.025-.5.339.339,0,0,0-.237-.108.657.657,0,0,0-.335.139,1.429,1.429,0,0,1-.138.082,1.573,1.573,0,0,1-.642.2.377.377,0,0,1-.289-.111,1.189,1.189,0,0,1-.165-.854,25.3,25.3,0,0,0-.485-7.716,16.887,16.887,0,0,0-1.416-3.631,70.351,70.351,0,0,0-4-6.365c-.712-1.049-1.448-2.132-2.141-3.217l-.121-.19c-1.435-2.245-2.918-4.567-3.224-7.346a3.561,3.561,0,0,0-.1-.482c-.141-.55-.286-1.118.419-1.533a.233.233,0,0,0,.092-.185c-.177-2.6-.109-2.667,1.645-4.474l.033-.035a12.838,12.838,0,0,1,3.99-2.674c5.336-2.453,9.908-6.121,14.054-9.719,2.144-1.861,4.245-3.842,6.277-5.757,2.98-2.809,6.061-5.714,9.33-8.291a55.61,55.61,0,0,1,9.627-6.058A69.946,69.946,0,0,1,62.2.269,5.823,5.823,0,0,1,63.905,0a4.155,4.155,0,0,1,3.3,1.51,5.23,5.23,0,0,1,.869,4.458,39.049,39.049,0,0,1-4.371,11.3c-1.852,3.274-3.956,6.463-5.99,9.547-.5.763-1.024,1.552-1.536,2.336-.215.329-.424.673-.625,1.005a16.249,16.249,0,0,1-1.532,2.232l-.059.069c-.271.315-.5.586-.834.586a1.1,1.1,0,0,1-.646-.282,1.675,1.675,0,0,1,0,1.766,11.809,11.809,0,0,1-.972,1.766,7.49,7.49,0,0,0-1.283,2.893,2.794,2.794,0,0,1-.57,1.169c-.111.16-.226.325-.321.492a10.887,10.887,0,0,0-.874,2.276,11.474,11.474,0,0,1-.746,2.02,15.239,15.239,0,0,0-.784,1.9,14.149,14.149,0,0,1-.834,1.989,3.241,3.241,0,0,0-.287.955,2.745,2.745,0,0,1-.411,1.158,20.016,20.016,0,0,0-1.182,3.614c-.211,1.205-.458,2.423-.7,3.6l-.055.27c-.036.175-.112.408-.368.408a.5.5,0,0,1-.077-.006.731.731,0,0,0-.115-.01.267.267,0,0,0-.237.1.3.3,0,0,0,.011.281,2.973,2.973,0,0,1-.4,2.6l0,.005-.084.171c-1.064,2.173-2.014,4.437-2.932,6.627l-.24.572a.836.836,0,0,1-.412.361.653.653,0,0,0-.39.942c.156.446-.3,1.2-.665,1.8l-.084.139a11.032,11.032,0,0,0-.561,1.12c-.12.265-.244.537-.38.8-2.26,4.307-4.484,8.948-6.8,14.187-.682,1.542-1.452,3.074-2.2,4.557-.543,1.079-1.1,2.193-1.625,3.3a13.143,13.143,0,0,0-.658,1.888l-.006.021-.064.217a3.056,3.056,0,0,1-1.277,2,.477.477,0,0,0-.289.3c-.849,2.676-2.967,4.259-5.016,5.79l0,0c-.3.228-.62.464-.925.7a21.288,21.288,0,0,1-4.368,2.375c-.415.185-.843.377-1.256.57-.364.171-.726.376-1.076.576a7.294,7.294,0,0,1-2.555,1.048c-.271.038-.542.079-.813.119a26.139,26.139,0,0,1-3.321.351ZM49.571,11a.373.373,0,0,0-.283.165.158.158,0,0,0-.014.16.5.5,0,0,1,.067.4c-.057.143-.228.2-.379.259a1.024,1.024,0,0,0-.208.091c-1.482.979-2.927,1.972-4.294,2.95a11.417,11.417,0,0,0-1.508,1.376A11.619,11.619,0,0,1,41.5,17.738a5.941,5.941,0,0,0-2.114,1.9c-.26.323-.528.657-.82.957a7.45,7.45,0,0,0-1.781,1.63,9.98,9.98,0,0,1-1.272,1.283c-.407.321-.822.644-1.225.958-1.5,1.166-3.044,2.37-4.457,3.672A50.984,50.984,0,0,1,17.47,36.545a15.148,15.148,0,0,1-1.8.689,8.091,8.091,0,0,0-3.3,1.714c-.157.153-.322.3-.482.449a3.63,3.63,0,0,0-1.553,2.465A10.5,10.5,0,0,0,11.5,47.6a57.014,57.014,0,0,0,4.154,6.329c.71.984,1.445,2,2.135,3.024a39.082,39.082,0,0,1,2.948,4.983,18,18,0,0,1,1.683,5.578,58.542,58.542,0,0,1,.012,10.681l0,.065q-.023.379-.046.759a4,4,0,0,1-.281,1.092,4.308,4.308,0,0,0-.318,1.321l0,.143a5.952,5.952,0,0,1-.844,3.534A15.014,15.014,0,0,0,18.9,89.22c-.254.683-.516,1.39-.823,2.062a3.319,3.319,0,0,0-.209.888,2,2,0,0,1-.5,1.3,4.427,4.427,0,0,0-1.155,1.9c-.072.185-.147.375-.228.56a3.087,3.087,0,0,1-.613.937A10.453,10.453,0,0,0,13.8,99.11c-.143.246-.277.479-.419.709a22.789,22.789,0,0,1-4.122,5.1,2.122,2.122,0,0,1-.644.359,1.346,1.346,0,0,0-.864.694A4.557,4.557,0,0,1,6.388,107.6a3.665,3.665,0,0,0-1.07,1.817.994.994,0,0,0,.277.04,1.358,1.358,0,0,0,.533-.134c.047-.019.092-.038.139-.055a18.276,18.276,0,0,0,2.767-1.387c.657-.378,1.337-.768,2.04-1.088a18.671,18.671,0,0,0,7.25-5.765,32.051,32.051,0,0,0,3.137-5.53l0-.007.314-.65q.508-1.045,1.017-2.09l.007-.013c1.682-3.453,3.421-7.023,5.021-10.586C29,79.538,30.1,77.217,31.2,75.058c2.028-3.977,3.82-8.043,5.454-11.845A54.224,54.224,0,0,0,39.915,53.3a55.03,55.03,0,0,1,2.73-8.237l.159-.407c1.948-4.985,4.156-10.635,7.727-15.483l.993-1.347c2.748-3.723,5.59-7.573,8.113-11.554,3.306-5.216,4.318-8.419,4.831-10.627.022-.094.054-.193.087-.3.116-.359.236-.73-.037-.966a.391.391,0,0,0-.267-.094,1.666,1.666,0,0,0-.642.211c-.089.042-.173.082-.253.114a86.548,86.548,0,0,0-11.451,5.563,4.4,4.4,0,0,0-.493.352,2.083,2.083,0,0,1-1.248.593,1.367,1.367,0,0,1-.534-.114A.154.154,0,0,0,49.571,11ZM33.706,72.114c-2.638,4.834-4.915,9.9-7.116,14.8-2.04,4.54-4.149,9.234-6.527,13.7.279-.455.584-.9.879-1.327a16.8,16.8,0,0,0,1.518-2.511c.632-1.381,1.32-2.764,1.985-4.1.873-1.757,1.776-3.573,2.565-5.407a146.389,146.389,0,0,1,6.812-14.161.688.688,0,0,0-.116-.992ZM17.933,81.4c-.226,0-.335.209-.362.4a8.831,8.831,0,0,1-.672,2.142c-.12.292-.244.594-.352.9-.21.59-.417,1.19-.616,1.771a49.074,49.074,0,0,1-2.34,5.948l-.1.194a10.907,10.907,0,0,0-1.168,3.1l-.031,0c0,.017,0,.034-.006.051l0,.021a14.909,14.909,0,0,0-2.044,3.94,10.382,10.382,0,0,1,.844-1.389,6.02,6.02,0,0,0,1.2-2.55l.035-.047,0-.018,0-.01c.264-.034.365-.239.463-.437l.035-.071c.9-1.769,1.674-3.631,2.421-5.431.482-1.162.98-2.363,1.508-3.527a8.06,8.06,0,0,0,.5-1.793,5.362,5.362,0,0,1,1.013-2.61.353.353,0,0,0,.1-.307.362.362,0,0,0-.233-.235A.508.508,0,0,0,17.933,81.4ZM35.09,68.939h0l-.628,1.389-.628,1.389.169.089.169.089a4.488,4.488,0,0,1,.459-.833,2.2,2.2,0,0,0,.458-2.123ZM12.263,35.593c-2.353.442-4.757,2.653-4.513,4.152A13.479,13.479,0,0,1,12.263,35.593Zm19.7-14.47-.134.117Q27.2,25.25,22.571,29.262l.125.145.075.088,9.4-8.1-.131-.174ZM60.4,1.959c-3.262,1.332-6.727,2.782-10.071,4.553A44.126,44.126,0,0,0,41.2,12.765a69.918,69.918,0,0,1,9.215-5.921C53.83,5.057,57.187,3.413,60.4,1.959Z" transform="translate(25.799 29.096)"/>
      <path id="Fill_223" data-name="Fill 223" class="cls-2" d="M2.934,0A7.136,7.136,0,0,1,0,2.855C.952,1.876,1.608.594,2.934,0" transform="translate(64.364 46.835)"/>
    </g>
    <g id="_72" data-name="72" class="cls-3" transform="matrix(0.469, 0.883, -0.883, 0.469, 378.838, 312.068)">
      <path id="Fill_1" data-name="Fill 1" class="cls-2" d="M82.488,145.336a78.074,78.074,0,0,1-22.024-3.114,35.1,35.1,0,0,1-7.889-3.9c-.459-.276-.929-.559-1.39-.831-.858-.507-1.745-1.011-2.6-1.5a47.008,47.008,0,0,1-8.894-5.979c-1.568-1.455-3.3-2.774-4.971-4.049-4.044-3.082-8.226-6.269-10.527-11.676-1.252-2.945-3.72-5.247-6.332-7.685a39.216,39.216,0,0,1-4.958-5.223A66.041,66.041,0,0,1,2.791,81.425a64.512,64.512,0,0,1-2.533-22.5A38.554,38.554,0,0,1,4.452,36.735c2.713-5.387,6.472-8.005,11.493-8.005.2,0,.414,0,.622.013,4.487.188,9.343,1.167,11.345,6.993a5.91,5.91,0,0,0,1.494,2.024,7.3,7.3,0,0,1,1.4,1.763,4.47,4.47,0,0,0,.641.825c.523.587,1.117,1.252.919,1.795-.162.445-.827.747-2.033.922a7.218,7.218,0,0,1,.089.808c.045.6.091,1.227.406,1.435a10.5,10.5,0,0,1,4.6,5.99,11.322,11.322,0,0,1-.721,7.422A25.311,25.311,0,0,0,32.659,69.3c.075,2.006,2.194,4.623,4.039,5.622A37.155,37.155,0,0,0,54.614,79.5,42.651,42.651,0,0,0,64.4,78.317c14.4-3.4,26.274-7.838,36.307-13.571a89.426,89.426,0,0,0,15.482-11.128A83.648,83.648,0,0,0,129.246,38.66a105.323,105.323,0,0,0,8.072-15.177c1.156-2.491,2.351-5.068,3.616-7.543.419-.822.839-1.662,1.244-2.476A86.067,86.067,0,0,1,146.863,4.9,10.388,10.388,0,0,1,156.082,0a15.691,15.691,0,0,1,1.673.093c3.3.355,4.926.935,5.813,2.069.867,1.109,1.05,2.811.631,5.875-.188,1.374-.2,2.292.3,2.92a3.268,3.268,0,0,0,2.372.918c1.024.094,2.436,1.9,2.783,3.231,2.877,10.972,3.3,22.9,1.285,36.471-1.7,11.491-3.948,24.967-7.685,37.8-3.415,11.727-7.9,23.824-17.5,32.852a75.218,75.218,0,0,1-15.14,11.007,87.113,87.113,0,0,1-17.3,7.173A107.576,107.576,0,0,1,82.488,145.336Zm34.624-14.069L103.863,134.6l-.272.068-17.609,4.428a21.606,21.606,0,0,0,4.15.358C98.887,139.452,111.495,135.627,117.112,131.267Zm-8.521-6.541L92.83,128.361l.165.716.165.716,7.493-1.641.034-.007.172-.038,8.1-1.773-.08-.349Q108.733,125.353,108.591,124.726Zm32.3-5.01h0l-3.4,3-3.4,3q.353.334.7.671l.015.014.461.44,6.678-5.944q-.353-.4-.709-.79l-.355-.394ZM85.844,88.825Q75.424,91.4,65.007,93.986c.115.452.23.9.347,1.356a16.5,16.5,0,0,0,3.71.425c4.657,0,8.88-2,12.963-3.932,1.343-.636,2.73-1.292,4.112-1.868L86,89.419Z" transform="translate(0.001 0)"/>
    </g>
    <g id="_11" data-name="11" class="cls-4" transform="translate(429.395 1015.431) rotate(-173)">
      <path id="Fill_517" data-name="Fill 517" class="cls-2" d="M85.727,136.951a53.233,53.233,0,0,1-9.6-1.038c-5.718-1.062-11.512-1.934-17.44-2.807a145.332,145.332,0,0,1-15.041-3.017,127.945,127.945,0,0,1-14.6-4.7,82,82,0,0,1-16.984-8.824,33.429,33.429,0,0,1-9.514-9.329A14.442,14.442,0,0,1,.015,98.647a15.081,15.081,0,0,1,3.33-8.413C6.726,85.788,11.3,83,15.323,80.864A53.425,53.425,0,0,1,28.13,76.075a73.134,73.134,0,0,1,13.557-1.847c5.459-.268,11.012-.284,16.382-.3l2.57-.008a24.637,24.637,0,0,0,5.575-.88c.59-.14,1.2-.285,1.8-.413,4.877-1.035,9.7-2.254,13.363-3.2a21.461,21.461,0,0,0,5.251-1.966,5.529,5.529,0,0,1,1.062-.421,3.5,3.5,0,0,0,1.682-.911.624.624,0,0,1,.49-.218,2.118,2.118,0,0,1,.928.327,1.591,1.591,0,0,0,.722.243c.335,0,.512-.258.525-.766a1.93,1.93,0,0,1,1.743-2.039c.531-.1.956-.214,1.187-.725.029-.067.1-.165.14-.165a1.74,1.74,0,0,0,.181.01,1.965,1.965,0,0,0,1.439-.827,3.681,3.681,0,0,1,.655-.593c.76-.489,1.522-1,2.258-1.5l.005,0c.966-.652,1.964-1.327,2.971-1.951.706-.439,1.384-.942,2.04-1.429.447-.332.909-.675,1.375-.994.118-.081.239-.16.367-.245a7.311,7.311,0,0,0,1.266-.969c.3-.314.633-.6.953-.881.243-.212.493-.43.729-.657a15.836,15.836,0,0,1,2.177-1.664,17.38,17.38,0,0,0,2.021-1.515,34.3,34.3,0,0,0,2.73-2.916c.514-.594,1.045-1.207,1.592-1.788.826-.877,1.653-1.773,2.452-2.639a92.074,92.074,0,0,1,9.571-9.406,21.806,21.806,0,0,1,6.3-3.541,26.617,26.617,0,0,1,7.1-1.455,25.5,25.5,0,0,0,5.378-1.188c.635-.19,1.292-.386,1.946-.56a34.131,34.131,0,0,0,6.944-2.886,9.271,9.271,0,0,0,2.668-2.49c.2-.24.4-.487.608-.726.644-.743,1.286-1.515,1.906-2.262a38.572,38.572,0,0,1,7.357-7.386c.519-.36,1.046-.73,1.555-1.087l.012-.008a58.691,58.691,0,0,1,8.07-5.037A38.185,38.185,0,0,1,190.976.482a45.333,45.333,0,0,1,6.4-.481,32.672,32.672,0,0,1,12.087,2.192,32.307,32.307,0,0,1,7.683,4.213,32.03,32.03,0,0,1,7.573,8.287,27.107,27.107,0,0,1,3.611,8.285,42.508,42.508,0,0,1,1.207,8.96,37.209,37.209,0,0,1-.516,8.921c-.1.489-.228.991-.353,1.477a20.466,20.466,0,0,0-.456,2.067,28.645,28.645,0,0,1-2.866,8.081l-.178.377c-1.209,2.562-2.641,5.07-4.027,7.5l-.483.847c-.475.834-1.028,1.635-1.563,2.409a23.439,23.439,0,0,0-2.133,3.518,5.718,5.718,0,0,1-1.1,1.451c-.178.189-.362.385-.53.583a6.012,6.012,0,0,0-.8,1.4,7.184,7.184,0,0,1-.663,1.224c-1.09,1.509-2.164,3.065-3.2,4.57-.947,1.373-1.926,2.792-2.917,4.173-2.67,3.723-5,7.74-7.262,11.625-.815,1.4-1.658,2.852-2.5,4.267-.741,1.239-1.482,2.486-2.2,3.692-.6,1.011-1.282,2.158-1.946,3.27a35.393,35.393,0,0,1-2.034,2.934c-.188.252-.4.537-.6.811a10.354,10.354,0,0,1-1.172,1.257c-.267.257-.543.522-.786.79a9.689,9.689,0,0,1-.967.888,4.888,4.888,0,0,0-1.7,2.071,2.43,2.43,0,0,1-1.564,1.506,3.2,3.2,0,0,0-1.138.832,3.163,3.163,0,0,1-1.2.857l-4.636,3.334a13.428,13.428,0,0,1-4.669,2.561c-.286.1-.578.194-.861.284a7.052,7.052,0,0,0-2.864,1.42.913.913,0,0,1-.555.3.488.488,0,0,1-.327-.14.422.422,0,0,0-.275-.122.25.25,0,0,0-.249.216c-.087.429-.264.621-.576.621a1.86,1.86,0,0,1-.557-.123.994.994,0,0,0-.3-.063c-.075,0-.122.02-.142.061-.035.071.02.2.163.383-.095.046-.189.1-.281.144a4.865,4.865,0,0,1-.616.288,135.657,135.657,0,0,1-15.4,4.714,34.04,34.04,0,0,0-4.856,1.632c-1.016.4-2.067.813-3.125,1.153a61.279,61.279,0,0,1-15.188,2.586c-1.375.085-2.775.116-4.129.146-1.722.038-3.5.078-5.232.228-3.172.274-6.4.469-9.524.657s-6.34.382-9.5.656c-3.934.341-7.925.5-12.008.656C86.566,136.944,86.147,136.951,85.727,136.951Zm36.035-8.839c-4.774,0-38.7,1.424-39.964,1.6a17.7,17.7,0,0,0,4.562.555l.052,0c1.162.035,2.369.052,3.587.052,7.855,0,15.8-.726,23.474-1.427,2.868-.262,5.833-.533,8.753-.762A3.8,3.8,0,0,0,121.762,128.112Zm-26.709-7.294a16.95,16.95,0,0,0-4.338.762c-.537.143-1.092.292-1.642.416.261.019.539.03.826.03a23.163,23.163,0,0,0,5.448-.876c.321-.078.648-.158.971-.234A8.034,8.034,0,0,0,95.053,120.818Zm10.414-.488a6.076,6.076,0,0,0-3.089.67,16.566,16.566,0,0,1,2.684-.3,15.669,15.669,0,0,0,2.837-.335c-.131,0-.274.007-.434.007-.333,0-.673-.011-1-.021h-.005c-.326-.01-.663-.021-.991-.021Zm71.214-6.172-3.082,1.7-3.082,1.7.1.185.031.055a26.486,26.486,0,0,0,5.15-2.726l.013-.008c.34-.213.691-.434,1.039-.647Zm-2.359-1.805a.85.85,0,0,0-.815.4.255.255,0,0,0,0,.234.478.478,0,0,0,.32.275.989.989,0,0,0,.2.021c.453,0,.682-.378.934-.871l-.04,0A5.074,5.074,0,0,0,174.322,112.353Zm15.712-14.42c-1.3,1.323-2.632,2.655-3.921,3.944-3.611,3.61-7.342,7.341-10.745,11.267C181.378,109.806,186.176,104.831,190.034,97.933Zm-178.785,12.9a1.168,1.168,0,0,0-.629.192c.8,1.037,1.36,1.48,1.866,1.48.46,0,.919-.368,1.487-1.195a1.335,1.335,0,0,1-.684.2,2.3,2.3,0,0,1-1.036-.338l-.016-.008A2.215,2.215,0,0,0,11.249,110.835Zm-6.34-7.829h0a2.066,2.066,0,0,0,.1,1.474l.026.07c.776,2.14,2.247,3.67,4.088,5.447.408.394.632.579.919.579a2.753,2.753,0,0,0,1.088-.425c-1.651-.363-2.817-1.088-3.2-1.988a1.788,1.788,0,0,1,.184-1.688c-.126-.069-.282-.139-.447-.213-.41-.185-.873-.394-.947-.621a.2.2,0,0,1,.02-.17.868.868,0,0,0,.166-.687c-.071-.2-.291-.28-.5-.359a1.207,1.207,0,0,1-.332-.161c-.087-.071-.177-.134-.272-.2a2.072,2.072,0,0,1-.894-1.056Zm68.213-3.24c-.254.023-.509.041-.756.059a8.1,8.1,0,0,0-3.433.752l.412,0h.081a6.214,6.214,0,0,0,3.7-.807Zm2.168-1.4a7.172,7.172,0,0,0-3.3.672,3.552,3.552,0,0,1,1.359-.187,3.406,3.406,0,0,0,2.052-.485h-.108Zm15.352-.833h0a5.464,5.464,0,0,0-2.973,1.2l.156-.013a3.632,3.632,0,0,0,2.817-1.187ZM18.82,80.608a34.514,34.514,0,0,0-9.828,5.739C12.552,84.088,15.768,82.211,18.82,80.608Zm20.426,2.461h0a2.022,2.022,0,0,0-.808.723c-.02.053-.017.092.011.116a.628.628,0,0,0,.444.169,1.993,1.993,0,0,0,.417-.062l.024-.005a2.276,2.276,0,0,1,.487-.068,1.149,1.149,0,0,1,.295.037.916.916,0,0,0-.48-.422c-.2-.1-.367-.182-.371-.471,0-.012-.006-.017-.019-.017Zm7.069-.12a.223.223,0,0,1,.16.077,1.87,1.87,0,0,0,.85.425,2.161,2.161,0,0,1,1.1.608,1.89,1.89,0,0,0-.172-.678c-.08-.2-.149-.376-.093-.495a.271.271,0,0,1,.176-.132.519.519,0,0,1,.159-.029c.222,0,.3.2.391.437a.9.9,0,0,0,.426.573.86.86,0,0,1,.925-.811,1.91,1.91,0,0,1,.3.025,5.823,5.823,0,0,0,.914.071,12.051,12.051,0,0,0,3.52-.711c.433-.134.881-.272,1.325-.388a20.491,20.491,0,0,1,3.314-.542,37.05,37.05,0,0,0,3.873-.638c.589-.119,1.2-.241,1.791-.346,2.054-.363,4.225-.835,6.637-1.443.35-.088.717-.148,1.073-.205a5.09,5.09,0,0,0,2.64-.959l.041.006.013-.024a2.8,2.8,0,0,0,1.987-.517,1.267,1.267,0,0,0,.325-.948h0a3.513,3.513,0,0,1-.967.5,2.294,2.294,0,0,0-1.344.964h-.033l-.02.017-.2-.033a7.424,7.424,0,0,0-1.206-.135,2.445,2.445,0,0,0-1.409.4.5.5,0,0,1-.278.078,1.594,1.594,0,0,1-.692-.233,1.257,1.257,0,0,0-.6-.147,1.2,1.2,0,0,0-.85.33,1.088,1.088,0,0,1-.881.368c-.082,0-.165,0-.246-.008l-.035,0c-.071,0-.144-.007-.216-.007h-.082a2.542,2.542,0,0,1-.365-.035,2.556,2.556,0,0,0-.365-.035,1.05,1.05,0,0,0-.245.027,26.584,26.584,0,0,1-4.379.533c-1.08.071-2.2.144-3.284.318a5.362,5.362,0,0,1-.827.051l-.266,0h-.017l-.306,0a3.252,3.252,0,0,0-1.729.374,1.651,1.651,0,0,0-.3.257c-.161.162-.328.33-.518.33a.368.368,0,0,1-.194-.059c-.186-.113-.109-.273-.02-.459.1-.209.213-.446-.009-.683a3.862,3.862,0,0,1-3.085,1.694h-.1a4.947,4.947,0,0,0-.844.1h-.005a4.939,4.939,0,0,1-.862.1,1.518,1.518,0,0,1-1.43-.9c.258.464.329.789.226,1.022-.094.212-.333.358-.754.458-.524.124-1.066.2-1.589.267-.465.063-.945.127-1.406.227a6.7,6.7,0,0,0-.782.238,3.985,3.985,0,0,1-1.279.3,1.723,1.723,0,0,1-.286-.023,1.372,1.372,0,0,0-.228-.019,2.831,2.831,0,0,0-1.092.305l-.006,0a2.823,2.823,0,0,1-1.08.3,1.38,1.38,0,0,1-.755-.23.154.154,0,0,0-.084-.022.327.327,0,0,0-.256.16.458.458,0,0,0,0,.459,1.2,1.2,0,0,0,1.067.56,1.063,1.063,0,0,0,.688-.228,1.85,1.85,0,0,1,1.157-.333,1.745,1.745,0,0,0,1.192-.373c.181.323.37.48.579.48a1.146,1.146,0,0,0,.6-.29,2.148,2.148,0,0,1,.38-.24c.021-.009.042-.02.063-.031A.391.391,0,0,1,46.315,82.949Zm45.812-2.693a71.86,71.86,0,0,0-8.94,2.423,18.174,18.174,0,0,0,8.94-2.423Z" transform="translate(0 0)"/>
    </g>
    <g id="_3" data-name="3" class="cls-5" transform="translate(1558 209)">
      <path id="Fill_534" data-name="Fill 534" class="cls-2" d="M14.033,28.1a16.59,16.59,0,0,1-5.982-1,8.389,8.389,0,0,1-3.967-3.511c-.235-.36-.479-.724-.715-1.076-1.622-2.42-3.3-4.92-3.362-8.048C-.1,9.4,1.139,5.4,3.794,2.23A5.219,5.219,0,0,1,7.877,0a5.306,5.306,0,0,1,.814.065A3.254,3.254,0,0,1,11,1.858a5.926,5.926,0,0,1,.686,2.715,1.7,1.7,0,0,1-.675,1.207c-.106.1-.205.2-.292.306a12.617,12.617,0,0,0-2.2,4.889c-.162.568-.33,1.156-.522,1.724a.479.479,0,0,0,0,.4.744.744,0,0,0,.515.271,9.407,9.407,0,0,0,2,.241A4.685,4.685,0,0,0,14.5,11.615c.144-.193.293-.388.436-.576a13.652,13.652,0,0,0,1.849-2.9,2.393,2.393,0,0,0,.045-1.845c-.03-.085-.062-.169-.1-.259A1.761,1.761,0,0,1,16.568,4.7a1.239,1.239,0,0,1,.811-.573.267.267,0,0,0,.185-.148.5.5,0,0,0-.093-.406,1.734,1.734,0,0,1-.215-1.39,1.9,1.9,0,0,1,1.056-1.112,3.111,3.111,0,0,1,1.372-.3A4.858,4.858,0,0,1,22.6,1.84a3.788,3.788,0,0,1,1.533,2.55l0,.056a1.5,1.5,0,0,0,.17.7,9.465,9.465,0,0,1,1.351,5.083c.027.474.053.922.109,1.3A22.707,22.707,0,0,1,22.2,24.136a7.992,7.992,0,0,1-6.832,3.925C14.909,28.085,14.46,28.1,14.033,28.1Zm2.955-1.844a11.546,11.546,0,0,0-2.795.463c-.352.089-.716.18-1.076.257a6.365,6.365,0,0,0,1.453.173,6.109,6.109,0,0,0,3.074-.855A5.486,5.486,0,0,0,16.988,26.252Z" transform="translate(11.281 36.504)"/>
      <path id="Fill_536" data-name="Fill 536" class="cls-2" d="M11.95,27.574a8.034,8.034,0,0,1-5.366-1.726,5.017,5.017,0,0,1-.919-1.084c-.066-.094-.13-.188-.2-.279-.356-.493-.73-.989-1.092-1.469C2.534,20.571.629,18.044.2,14.822A19.354,19.354,0,0,1,2.584,2.2C3.463.7,4.483,0,5.794,0a3.847,3.847,0,0,1,.428.025A2.451,2.451,0,0,1,8.105.983a1.74,1.74,0,0,1-.735.331,1.084,1.084,0,0,0-.831.549.521.521,0,0,0,.325.114,1.152,1.152,0,0,0,.372-.085l.007,0a1.086,1.086,0,0,1,.348-.082.433.433,0,0,1,.091.009,2.8,2.8,0,0,0,.325.041c.288.026.586.053.666.235.066.15-.025.387-.28.723a.559.559,0,0,1-.043.048c-.037.038-.074.077-.067.116s.031.053.08.077a1.2,1.2,0,0,1,.681.648,1.515,1.515,0,0,1-.289,1.114,3.126,3.126,0,0,0-.26.569c-.062.214-.135.428-.2.636A5.878,5.878,0,0,0,7.9,7.762c-.028,1.307-.035,2.45-.022,3.495.016,1.174.153,1.515,1.036,1.515.162,0,.36-.012.622-.036a4.606,4.606,0,0,0,2.989-1.39,4.211,4.211,0,0,0,1.111-3.053,22.964,22.964,0,0,1,.8-5.846A2.392,2.392,0,0,1,16.386.478a2.722,2.722,0,0,1,.46-.037A3.691,3.691,0,0,1,20.034,2.2a24.484,24.484,0,0,1,1.827,6,29.075,29.075,0,0,1-.7,12.19,13.708,13.708,0,0,1-2.006,4.387,7.005,7.005,0,0,1-5.2,2.684A19.429,19.429,0,0,1,11.95,27.574Zm1.9-1.717a5.745,5.745,0,0,0-2.457.529,12.365,12.365,0,0,0,1.522.125,3.749,3.749,0,0,0,2.11-.559A7.642,7.642,0,0,0,13.852,25.857Z" transform="translate(52.224 22.646)"/>
      <path id="Fill_538" data-name="Fill 538" class="cls-2" d="M13.174,26.2a12.5,12.5,0,0,1-5.481-1.274,10.374,10.374,0,0,1-3.618-3.435A24.111,24.111,0,0,1,.418,13.005a13.629,13.629,0,0,1,1.3-9.869c.083-.168.163-.337.24-.5A4.7,4.7,0,0,1,3.753.3,2.1,2.1,0,0,1,4.837,0a4.189,4.189,0,0,1,1.4.313c.194.07.5.3.486.428a4.994,4.994,0,0,0,.435,2.336,4.455,4.455,0,0,1,.372,2.655c-.148.586-.241,1.2-.331,1.786q-.025.161-.049.322a3.17,3.17,0,0,0,.526,2.477,3.159,3.159,0,0,0,2.247,1.147,6.95,6.95,0,0,0,.748.042,4.934,4.934,0,0,0,4.141-2.031,11.818,11.818,0,0,0,2.093-4.442,2.291,2.291,0,0,1,2.309-1.908,3.075,3.075,0,0,1,.453.035c2.28.341,2.86.966,3.105,3.343,0,.029,0,.06.007.091a.61.61,0,0,0,.085.342,5.509,5.509,0,0,1,.964,3.68c.015.507.031,1.032.089,1.577A17.144,17.144,0,0,1,20.372,23.2a7.085,7.085,0,0,1-4.214,2.654A13.737,13.737,0,0,1,13.174,26.2Zm-.083-1.622a11.269,11.269,0,0,0-2.074.174,4.559,4.559,0,0,0,2.014.417,4.121,4.121,0,0,0,2.136-.507l-.277-.016C14.275,24.608,13.693,24.575,13.092,24.575Z" transform="translate(40.109 59.484)"/>
      <path id="Fill_540" data-name="Fill 540" class="cls-2" d="M10.041,26.079a7.343,7.343,0,0,1-5.7-2.691,8.3,8.3,0,0,1-2.077-4.252,1.84,1.84,0,0,0-.331-.734L1.9,18.34A11.785,11.785,0,0,1,0,12.084,15.067,15.067,0,0,1,1.493,5.75c.692-1.519,1.712-2.322,2.949-2.322a4.224,4.224,0,0,1,2.473.947l.051.038c.22.162.494.364.445.67-.042.256-.213.278-.384.278H6.865a.634.634,0,0,0-.2.025c-.045.015-.093.028-.141.041-.215.058-.437.117-.4.4.03.257.214.279.4.279h.125a.972.972,0,0,1,.112.005l.048,0c.435.044.885.09,1.053.6.121.371-.112.505-.358.647a1.172,1.172,0,0,0-.373.287,1.194,1.194,0,0,1,.808.548,1.254,1.254,0,0,1-.206.987,1.822,1.822,0,0,0-.246.737,1.141,1.141,0,0,1-.094.384c-.1.263-.2.535.074.8a1.026,1.026,0,0,0,.737.3,1.734,1.734,0,0,0,.638-.139,6.118,6.118,0,0,0,3.77-4.735c.168-.787.393-1.569.611-2.325s.44-1.527.606-2.306A2.442,2.442,0,0,1,16.311,0a2.964,2.964,0,0,1,.653.074,3.421,3.421,0,0,1,2.974,3.077c.09.688.217,1.379.339,2.047a20.482,20.482,0,0,1,.471,4.293,22.346,22.346,0,0,1-4.754,13.691A7.542,7.542,0,0,1,10.041,26.079Zm-.344-1.6a2.242,2.242,0,0,0-.989.2l.285.074a4.21,4.21,0,0,0,1.047.186A1.476,1.476,0,0,0,11,24.6c-.14-.014-.283-.032-.42-.05A7.061,7.061,0,0,0,9.7,24.477Z" transform="translate(86.855 6.428)"/>
      <path id="Fill_542" data-name="Fill 542" class="cls-2" d="M9.564,21.963a3.838,3.838,0,0,1-1.18-.257,4.616,4.616,0,0,0-1.1-.263.5.5,0,0,1-.471-.539.321.321,0,0,1,.2-.215H7.01a1.9,1.9,0,0,0,.292.028.348.348,0,0,0,.307-.111c.065-.1.054-.253-.034-.484a1.657,1.657,0,0,1-.062-.227c-.048-.217-.1-.441-.362-.516a.549.549,0,0,0-.145-.023c-.2,0-.211.178-.223.35s-.026.351-.221.351H6.531a.184.184,0,0,1-.106.054c-.094,0-.1-.2-.1-.388s-.006-.387-.1-.387-.206.137-.4.419a.638.638,0,0,0-.055-.038.237.237,0,0,1-.1-.091,5.591,5.591,0,0,0-1.24-1.671A7.094,7.094,0,0,1,3.36,16.627c-.213-.368-.45-.731-.68-1.081a12.122,12.122,0,0,1-1.2-2.141A19.467,19.467,0,0,1,.329,2.474C.634.856,1.537,0,2.943,0a4.085,4.085,0,0,1,.774.079,1.738,1.738,0,0,1,1.327.945c.167.359.353.72.533,1.068.807,1.564,1.641,3.181,1.052,5.171a2.5,2.5,0,0,0,.74,2.172,1.09,1.09,0,0,0,.813.45,1.065,1.065,0,0,0,.482-.128l.1-.051a7.466,7.466,0,0,0,2.79-2.017c.324-.427.691-.833,1.046-1.226.238-.263.483-.534.713-.809a5.652,5.652,0,0,0,1.1-3.3c.1-1.31.762-2.093,1.768-2.093a2.732,2.732,0,0,1,1.113.269,2.9,2.9,0,0,1,1.582,1.395c.142.331.289.664.431.986A21.562,21.562,0,0,1,20.847,7.2a21.207,21.207,0,0,1,.405,5.505,3.952,3.952,0,0,1-.244,1.037,3.253,3.253,0,0,0-.243,1.315.323.323,0,0,1-.1.2.846.846,0,0,1-.455.292.942.942,0,0,0-.775.569,1.684,1.684,0,0,1-.312.4.65.65,0,0,0,.33.106.778.778,0,0,0,.461-.216l.038-.029a.952.952,0,0,1,.6-.245H20.6a5.345,5.345,0,0,0-1.836,2.524c-.213.583-1.005.959-1.642,1.262l-.241.115a17.687,17.687,0,0,1-7.266,1.921Zm1.817-2.818h0a3.781,3.781,0,0,1-.045.485c-.047.351-.091.682.056.85a.364.364,0,0,0,.292.109h.039l.186-.008a2.018,2.018,0,0,0,1.9-.845,1.113,1.113,0,0,0-.335-.048,2.937,2.937,0,0,0-.622.091l-.016,0a2.767,2.767,0,0,1-.58.087C11.847,19.87,11.577,19.646,11.381,19.145Zm4.13-4.635a.806.806,0,0,0-.092.005.266.266,0,0,0-.208.111.7.7,0,0,0,.047.54.514.514,0,0,0-.085.5.425.425,0,0,0,.362.224c.035,0,.067.005.1.005a.247.247,0,0,0,.209-.069c.053-.072.018-.188-.019-.311a.729.729,0,0,1-.046-.243c.011-.134.042-.194.1-.194a.323.323,0,0,1,.124.044.551.551,0,0,0,.14.055.513.513,0,0,0,.093.009.188.188,0,0,0,.2-.124.261.261,0,0,0-.1-.272A1.6,1.6,0,0,0,15.511,14.51Z" transform="translate(0 75.102)"/>
      <path id="Fill_544" data-name="Fill 544" class="cls-2" d="M7.71,23.854a.221.221,0,0,1-.19-.076c-.105-.138-.025-.468.082-.853-.307.6-.57.864-.853.864a.954.954,0,0,1-.658-.414.98.98,0,0,0-.669-.256c-.091-.011-.185-.023-.273-.042-.6-.134-.678-.263-.661-1.054,0-.169-.081-.2-.178-.226a.774.774,0,0,1-.091-.033,3.364,3.364,0,0,1-2-3.315c0-.1,0-.216.01-.335A1.639,1.639,0,0,0,2,16.906a1.033,1.033,0,0,0-.786-.262c-.042,0-.085,0-.13,0H1.065c-.16,0-.208-.11-.26-.227l-.021-.047a7.813,7.813,0,0,1-.75-4.1,9.815,9.815,0,0,1,1.34-3.937A3.241,3.241,0,0,1,4.15,6.864a2.927,2.927,0,0,1,.972.159A2.05,2.05,0,0,1,6.2,8a.338.338,0,0,1,0,.315c-.111.2-.443.278-.7.312a.253.253,0,0,0-.2.1c-.067.106-.014.27.033.416l.007.02c.082.252.23.38.439.38a.772.772,0,0,0,.265-.054,1.844,1.844,0,0,1,.593-.147.31.31,0,0,1,.244.092c.113.125.139.378.09.876-.054.543.5.837,1.042,1.122a5.422,5.422,0,0,1,.5.286.35.35,0,0,0,.195.069c.276,0,.436-.457.522-.7a.866.866,0,0,1,.4-.511c1.74-.891,2.013-2.572,2.276-4.2q.021-.132.043-.263c.06-.362.1-.742.134-1.109a13.45,13.45,0,0,1,.177-1.337c.1-.513.25-1.05.39-1.571.073-.27.148-.547.216-.818A1.685,1.685,0,0,1,14.806,0c.135,0,.283,0,.468.015a7.194,7.194,0,0,1,1.614.349l.327.1c.154.044.386.265.372.383a2.14,2.14,0,0,0,.338,1.213,1.815,1.815,0,0,1,.237,1.649c-.122.285.266.851.523,1.225l0,.005c.242.351.364.527.32.656s-.276.216-.715.361c.555.235,1.081.539,1.175,1.152.041.268-.126.3-.32.34a.676.676,0,0,0-.41.186.987.987,0,0,1,.82.338,1.414,1.414,0,0,1,.047,1.24,5.357,5.357,0,0,0-.078,2.034,7.055,7.055,0,0,1,.031,1.478c-.039.323-.094.654-.147.974-.074.443-.149.9-.186,1.349-.017.2-.062.295-.144.295s-.209-.11-.337-.227l-.049-.044a.83.83,0,0,0-.462-.271l-.033,0a.449.449,0,0,0-.147.374.379.379,0,0,0,.224.26,1.553,1.553,0,0,0,.287.1c.248.067.5.137.475.427s-.148,1.234-.515,1.395A1.263,1.263,0,0,0,17.9,18.9c.005.034.01.066.014.1a.826.826,0,0,1-.073.625.287.287,0,0,1-.23.088,1.759,1.759,0,0,1-.432-.086,1.561,1.561,0,0,0-.42-.066c-.418,0-.67.239-.772.731-.1.474-.441.625-.8.786a1.567,1.567,0,0,0-.7.476,5.207,5.207,0,0,1-.341.413,1.849,1.849,0,0,0-.639,1.4c-.719-.087-.773-.521-.83-.98a1.554,1.554,0,0,0-.233-.766c-.147,1.819-1.4,1.944-2.62,2.065l-.337.035a1.627,1.627,0,0,1-.18.009c-.125,0-.252-.011-.376-.022s-.249-.021-.367-.021a1.1,1.1,0,0,0-.407.064A1.314,1.314,0,0,1,7.71,23.854Zm.55-1.912c-.067,0-.228.127-.336.291a.444.444,0,0,0-.083.41.9.9,0,0,0,.7.432.212.212,0,0,0,.141-.041,2.546,2.546,0,0,1,1.52-.492,3.169,3.169,0,0,0,1.356-.349,1.222,1.222,0,0,0-.827-.251c-.231-.012-.431-.022-.532-.148a.819.819,0,0,0-.619-.382,1.234,1.234,0,0,0-.632.267,1.236,1.236,0,0,1-.626.267.521.521,0,0,1-.058,0Zm.793-4.325c-.429,0-.892.049-.961.634a.491.491,0,0,0,.073.391.622.622,0,0,0,.467.119.956.956,0,0,1,.384.054.577.577,0,0,0,.254.057,1.269,1.269,0,0,0,.377-.077l.011,0A1.168,1.168,0,0,1,10,18.717a.43.43,0,0,1,.144.023.887.887,0,0,0,.285.054.485.485,0,0,0,.456-.312c.149-.3-.023-.541-.19-.771a2.2,2.2,0,0,1-.149-.223.26.26,0,0,0-.233-.159.791.791,0,0,0-.353.138c-.033.019-.064.037-.094.053a1.13,1.13,0,0,0-.141.1.509.509,0,0,1-.292.136.435.435,0,0,1-.281-.134ZM7.632,13.46h0A.9.9,0,0,0,7,13.7a.634.634,0,0,0-.214.446.594.594,0,0,0,.181.428.665.665,0,0,0,.463.121,4.413,4.413,0,0,0,1.5-.34l.036,0a.706.706,0,0,0,.4-.218,3.307,3.307,0,0,1-.44.215c-.1-.018-.181-.1-.273-.28a1.179,1.179,0,0,0-1.034-.61Zm2.151.287c-.17.175-.3.3-.4.389A.9.9,0,0,0,9.783,13.748Z" transform="translate(75.559 43.877)"/>
      <path id="Fill_546" data-name="Fill 546" class="cls-2" d="M10.645,20.5a4.971,4.971,0,0,1-.576-.034,2.468,2.468,0,0,1-1.1-.479,4.594,4.594,0,0,0-.477-.287c-.44-.219-.892-.434-1.328-.641A29.99,29.99,0,0,1,3.2,16.92a8.47,8.47,0,0,1-2.5-3.629,6.8,6.8,0,0,1-.5-4.524,3.94,3.94,0,0,1,3.069-2.8,2,2,0,0,1,.4-.046c.621,0,.922.412.977,1.335a2.033,2.033,0,0,0,.853-1.265A16.991,16.991,0,0,1,6.864,2.42,4.492,4.492,0,0,1,10.12.059,2.09,2.09,0,0,1,10.6,0a1.164,1.164,0,0,1,.969.441,1.263,1.263,0,0,1,0,1.472,7.2,7.2,0,0,0-.47,1.094c-.075.2-.152.412-.244.64a2.905,2.905,0,0,0,1.479-.824c.091-.081.178-.157.268-.231a1.6,1.6,0,0,1,.969-.431c.482,0,.824.391.992,1.132l.017.076c.108.485.167.752.849.891.529.108.75.7.964,1.268.073.2.142.379.223.545a12.845,12.845,0,0,1,1.242,6.447,8.391,8.391,0,0,1-1.2,3.943,9.832,9.832,0,0,1-2.9,2.952A5.4,5.4,0,0,1,10.645,20.5Zm3.786-3.227a3.629,3.629,0,0,0-1.947,1.652,3.168,3.168,0,0,1,.668-.361A1.809,1.809,0,0,0,14.431,17.271Z" transform="translate(30.316 11.578)"/>
      <path id="Fill_548" data-name="Fill 548" class="cls-2" d="M4.492,5.341C5.192,3.754,5.51,2.115,6.745.958A2.7,2.7,0,0,1,7.323.441C7.855.184,8.531-.233,8.992.164c.4.345.333,1.073.13,1.665-.1.285-.462.675-.045.885.353.177.555-.28.78-.515.13-.136.227-.3.363-.432.254-.237.377-.751.856-.562a1.114,1.114,0,0,1,.776.9c.052.435.048.84.726.546.345-.15.586.3.773.55,2.064,2.791,2.491,5.678-.191,8.523-.821.869-1.663,1.717-2.495,2.576a1.372,1.372,0,0,1-1.566.269c-.625-.222.049-.729-.23-1.136-.636,1.023-1.248.887-2.062.149a1.832,1.832,0,0,0-2.059-.646c-.35.141-1.015-.248-1.423-.548A7.483,7.483,0,0,1,0,6.3a2.341,2.341,0,0,1,1.358-2.4,1.726,1.726,0,0,1,.617-.156c.477,1.072,1.866.644,2.517,1.6" transform="translate(62.579 0)"/>
    </g>
    <g id="_10" data-name="10" class="cls-6" transform="translate(1182 639)">
      <path id="Fill_519" data-name="Fill 519" class="cls-2" d="M55.607,144.008c-1.472,0-2.966-.046-4.442-.136a58.96,58.96,0,0,1-15.754-3.082A53.842,53.842,0,0,1,21.2,133.309a54.582,54.582,0,0,1-8.276-7.449,48.426,48.426,0,0,1-6.2-8.633,49.418,49.418,0,0,1-4.166-9.79A57.555,57.555,0,0,1,.4,96.516c-.133-1.307-.21-2.641-.285-3.932-.035-.6-.071-1.227-.112-1.841A61.078,61.078,0,0,1,3.492,70.565,122.727,122.727,0,0,0,8,53.669c.275-1.276.56-2.595.851-3.892a86.392,86.392,0,0,1,6.08-18.267A60,60,0,0,1,25.745,15.556,51.248,51.248,0,0,1,38.466,5.681,46.181,46.181,0,0,1,53.73.631,57.752,57.752,0,0,1,62.145,0,51.712,51.712,0,0,1,77.681,2.362a6.616,6.616,0,0,0,1.965.385,3.425,3.425,0,0,0,.569-.047A34.953,34.953,0,0,1,86,2.215,40.428,40.428,0,0,1,102.173,5.8a69.745,69.745,0,0,1,12.119,6.662,61.72,61.72,0,0,1,10.42,9.083,56,56,0,0,1,6.453,8.512,46.393,46.393,0,0,1,4.5,9.65c2.855,8.654,3.544,16.491,2.106,23.956a22.215,22.215,0,0,0-.284,2.517,15.217,15.217,0,0,1-.495,3.339c-.328,1.048-.572,2.129-.808,3.175-.257,1.14-.523,2.319-.9,3.445a54.987,54.987,0,0,0-1.723,7.4c-.235,1.274-.477,2.59-.765,3.875a61.03,61.03,0,0,1-4.954,13.524,66.893,66.893,0,0,1-5.006,8.645,52.284,52.284,0,0,1-6.374,7.634c-3.854,3.785-8.422,8.087-13.877,11.239-1.371.793-2.744,1.641-4.072,2.461-2.323,1.435-4.724,2.918-7.212,4.166a87.5,87.5,0,0,1-17.388,6.586A73.844,73.844,0,0,1,55.607,144.008ZM7.295,85.343A21.434,21.434,0,0,0,6.716,91.1c0,.341-.005.692-.011,1.038a48.859,48.859,0,0,0,1.677,13.582,51.485,51.485,0,0,0,5.267,12.508,42.811,42.811,0,0,0,8.259,10.209A43.441,43.441,0,0,0,33.015,135.7a53.4,53.4,0,0,0,10.308,3.518,48.538,48.538,0,0,0,10.75,1.212c.843,0,1.7-.022,2.546-.066A68.6,68.6,0,0,0,69.9,138.33a80.7,80.7,0,0,0,12.691-4.423c15.387-6.8,26.925-15.773,35.276-27.44a49.755,49.755,0,0,0,5.9-10.607c-.057,0-.117-.006-.183-.006a1.889,1.889,0,0,0-1.587.732,28.4,28.4,0,0,1-6.983,5.723c-1.623,1.06-3.088,1.986-4.478,2.831a15.078,15.078,0,0,0-4.2,4.43c-.414.577-.841,1.174-1.291,1.738a81.576,81.576,0,0,1-8.325,9.021,68.794,68.794,0,0,1-9.728,7.533,62.875,62.875,0,0,1-13.01,6.457,48.949,48.949,0,0,1-14.293,2.789c-.838.037-1.671.056-2.475.056a43.235,43.235,0,0,1-13.141-1.937c-7.762-2.437-14.546-6.959-20.74-13.827a57.314,57.314,0,0,1-9.964-15.57A83.664,83.664,0,0,1,7.992,88.115c-.125-.639-.3-1.279-.466-1.9C7.449,85.931,7.369,85.635,7.295,85.343ZM41.949,25.52c-.162.068-.3.116-.418.159a1.527,1.527,0,0,0-.466.219A111.342,111.342,0,0,0,26.877,40.327a88.447,88.447,0,0,0-8.792,12.8c-1.81,3.118-3.468,6.217-3.858,9.828a84.607,84.607,0,0,0,1,26.34A78.734,78.734,0,0,0,20.9,107.061a56.566,56.566,0,0,0,10.469,15.433,37.261,37.261,0,0,0,16.207,10.061,30.908,30.908,0,0,0,9.033,1.351c5.983,0,12.234-1.663,19.674-5.234a67.461,67.461,0,0,0,15.946-11.139,31.694,31.694,0,0,0,6.066-7.032c-1.552.177-3,.438-4.407.69-1.429.257-2.779.5-4.166.646a46.4,46.4,0,0,1-4.849.257,44.336,44.336,0,0,1-11.128-1.42,48.4,48.4,0,0,1-10.535-4.142,47.239,47.239,0,0,1-14.13-11.358,51.258,51.258,0,0,1-8.89-15.82,69.209,69.209,0,0,1-3-11.422,70.333,70.333,0,0,1-1.01-11.466,85.027,85.027,0,0,1,3.219-23.023c.486-1.764,1.067-3.484,1.682-5.3C41.363,27.289,41.659,26.414,41.949,25.52ZM66.294,11.8a18.7,18.7,0,0,0-9.209,3.858c-2.386,1.929-3.865,4.429-5.431,7.076l-.005.009-.347.585a52.07,52.07,0,0,0-5.072,12.165,68.18,68.18,0,0,0-2.242,11.467,92.918,92.918,0,0,0-.648,13.787,55.048,55.048,0,0,0,2.111,13.64c2.994,10.239,7.831,18.18,14.789,24.276a40.026,40.026,0,0,0,11.916,7.314A35.709,35.709,0,0,0,85.08,108.39a40.319,40.319,0,0,0,16.553-3.7,4.8,4.8,0,0,0,2.311-1.822,66.164,66.164,0,0,0,7.516-18.766,75.257,75.257,0,0,0,1.2-27.121,68.734,68.734,0,0,0-4.993-18.511A56.744,56.744,0,0,0,97.173,22.463,47.241,47.241,0,0,0,89.622,15.6a23.755,23.755,0,0,0-9.373-4.1c-.267-.051-.543-.109-.81-.165a13.074,13.074,0,0,0-2.627-.373,3.63,3.63,0,0,0-2.777,1.093,28.476,28.476,0,0,0-4.917,6.477,40.778,40.778,0,0,0-3.2,31.613,17.533,17.533,0,0,0,7.719,9.946,5.461,5.461,0,0,0,.595.309,3.525,3.525,0,0,1,.957.574.741.741,0,0,1,.145.926,1.265,1.265,0,0,1-1.272.642,5.759,5.759,0,0,1-1.56-.271,4.427,4.427,0,0,1-1.073-.516c-4.723-2.94-7.851-6.423-9.562-10.649-3.7-9.147-3.845-18.921-.435-29.882A35.4,35.4,0,0,1,66.294,11.8Zm42.717,83.475q-.991,2.211-1.979,4.423l.243-.315a10.434,10.434,0,0,0,2.183-3.834l-.447-.274Zm-17.033-82.9a11.621,11.621,0,0,0,2.9,2.573c.545.382,1.108.778,1.623,1.216a59.573,59.573,0,0,1,10.913,12.285,69.685,69.685,0,0,1,7.371,14.713,65.023,65.023,0,0,1,3.6,15.833,89.761,89.761,0,0,1,.126,16.176,70.575,70.575,0,0,1-4.657,19.859,3.125,3.125,0,0,1-.172.349c-.225.416-.48.888.08,1.239a.582.582,0,0,0,.31.1c.271,0,.471-.251.665-.493a2.344,2.344,0,0,1,.284-.317,44.68,44.68,0,0,0,9.528-11.669,36.687,36.687,0,0,0,2.986-6.174,17.628,17.628,0,0,0,1.033-6.912,81.01,81.01,0,0,0-2.446-15.924,68.11,68.11,0,0,0-5.5-14.294A66.461,66.461,0,0,0,112.012,28.3,76.02,76.02,0,0,0,100.2,17.341,40.529,40.529,0,0,0,91.977,12.373Zm20.6,71.549h0q-.43,1.64-.86,3.28l-.015.058,0,.011-.713,2.718a12.339,12.339,0,0,0,1.591-6.067ZM89.524,6.322h0a88.109,88.109,0,0,1,14.536,8.62,75.932,75.932,0,0,1,21.328,24.051,87.612,87.612,0,0,1,6.8,15.46,49.221,49.221,0,0,0-3.316-17.839,43.407,43.407,0,0,0-10.141-15.035,63.278,63.278,0,0,0-13.243-10.2A40.023,40.023,0,0,0,89.524,6.322ZM27.145,16.835a25.851,25.851,0,0,0-4.456,4.784c-.276.414-.591.813-.9,1.2a7.338,7.338,0,0,0-1.81,3.406l-.029.038-.029.038-.015.033,0,.006c-.472.041-.676.4-.873.751l-.062.109a59.3,59.3,0,0,0-5.3,11.268,8.19,8.19,0,0,1-.591,1.282,4.21,4.21,0,0,0-.72,2.913,1.981,1.981,0,0,0,1.183-1.785,7.9,7.9,0,0,1,1.011-3.086c.1-.2.2-.416.3-.626,1.36-2.909,2.739-5.869,4.072-8.731l.976-2.094.034,0h.026l.006-.048.009-.064,3.544-4.648ZM61.612,4.945a43.855,43.855,0,0,0-25.1,10.516c-8.513,7.2-13.5,14.459-15.7,22.859l.227-.253,0,0h0c.178-.2.361-.4.534-.607A120.88,120.88,0,0,1,38.516,20.908,55.421,55.421,0,0,1,43.8,17.295a49.921,49.921,0,0,0,5.7-3.956c3.73-3.148,7.464-6.119,12.108-7.882.021-.008.018-.08.012-.21C61.617,5.166,61.612,5.064,61.612,4.945Z" transform="translate(0 0)"/>
    </g>
  </g>
</svg>
