<svg xmlns="http://www.w3.org/2000/svg" width="936" height="115.267" viewBox="0 0 936 115.267">
  <defs>
    <style>
      .cls-1 {
        fill: #fff;
        font-size: 72px;
        font-family: CircularStd-Medium, Circular Std;
        font-weight: 500;
      }

      .cls-2 {
        fill: #fd9b9b;
      }
    </style>
  </defs>
  <g id="Group_39" data-name="Group 39" transform="translate(-493 -449)">
    <text id="Our_website_is_coming_soon_" data-name="Our website is coming soon!" class="cls-1" transform="translate(493 521)"><tspan x="0" y="0">Our website is coming soon!</tspan></text>
    <g id="_65" data-name="65" transform="matrix(0.995, 0.105, -0.105, 0.995, 1254.912, 515.312)">
      <path id="Fill_13" data-name="Fill 13" class="cls-2" d="M118.668,0c1.948,1.1,3.785,2.3,5.755,3.213a31.566,31.566,0,0,0,6.526,2.2,17.978,17.978,0,0,0,5.651.8c1.468.772,3.05.33,4.578.387.626.023,1.26-.348,1.893-.36.683-.012,1.293-.351,1.9-.391,2.234-.15,4.254-1.183,6.458-1.408.162-.017.3-.221.514-.383l1.884,1.24-1.747,1.292h2.065L153.575,7.9l.435.7a8.757,8.757,0,0,1-1.026,2.465,14.879,14.879,0,0,1-2.871,2.489,2.786,2.786,0,0,1-1.645.463c-1.218-.05-2.307.738-3.551.466-.182-.04-.432.228-.683.373l-.251-.713h-7.726a4.836,4.836,0,0,0,2.357.313c.893.02,1.789,0,2.683.006a5.317,5.317,0,0,1,2.38.411c-1.557,0-3.116.008-4.675,0-1.851-.012-3.74.2-5.44-.82a17.989,17.989,0,0,1-5.281-1.191,4.747,4.747,0,0,1-2.156-1.291l-.373.376a31.114,31.114,0,0,0-3.779-1.981c-.921-.342-1.282-1.347-2.264-1.528a5.552,5.552,0,0,1-1.217-.606c-.6-.2-1.569.45-2.285-.384l-.35.35-.533-.306-.3.734h-.684l.379-.625c-.116-.053-.268-.183-.341-.148-.516.252-1.021.532-1.521.815-.448.254-.887.525-1.434.851l-.6-.39c-.112.234-.24.5-.371.776l-.315-.29c-.423.343-.82.927-1.283.987-1.269.163-2.193,1.043-3.359,1.4a4.871,4.871,0,0,0-1.588,1.13,18.89,18.89,0,0,1-5.381,3.425l-.491-.458-.791.8H95.477c-.257.421-.491.808-.754,1.239H94c-.237.3-.4.727-.681.823-1.3.445-2.483,1.362-4.054.5a3.412,3.412,0,0,0-2.582.279l2.482.151-.011.239H86.382l-.313-.887c-.971.931-1.965.571-2.931.151a16.177,16.177,0,0,1-3.866-2.171,20.192,20.192,0,0,0-5.059-3.2,4.51,4.51,0,0,1-.634-.421H71.162c-.08-.121-.146-.182-.135-.216.02-.059.1-.1.137-.15.07-.092.133-.191.255-.369H69.941l-.282-.831-.848-.14.492.7-.435.479,1.292.257c-2.7.432-5.292,1.507-8.038,1.052a2.545,2.545,0,0,1-2.888,1.706c-1.754,1.616-3.5,3.309-5.344,4.9A15.565,15.565,0,0,1,47.346,24.2c-2.062.476-4.245,1.256-6.413.194a1.389,1.389,0,0,0-.614-.01c-2.095.1-3.9-.815-5.705-1.676-.754-.36-1.341-1.064-2.087-1.448a15.181,15.181,0,0,0-3.281-1.066c-2.022-.511-4.028-.273-6.038-.344a15.839,15.839,0,0,0-5.442.808,1.014,1.014,0,0,1-.611-.005c-.178-.064-.312-.249-.51-.418l-.3.886-1-.382c-.036.139-.086.323-.168.639-1.674.479-3.044,2.085-5.091,1.76l-.611.61.44.491a19.249,19.249,0,0,0-2.9,2.222,15.781,15.781,0,0,1-2.882,2.751L3.56,30.439l-1.033.593c-.116,1.245-.116,1.245-.737,1.992L0,31.234V27.624c.089-.063.69-.274.711-.535C.8,26.028,1.9,25.706,2.2,24.834a6.846,6.846,0,0,1,1.742-2.171c.848-.946,1.682-1.906,2.481-2.895a17.816,17.816,0,0,1,8.918-5.314c.8-.184,1.554-.574,2.348-.8.75-.215,1.573.279,2.343-.379.318-.271,1.062-.045,1.137-.045l1.291.661-.634.881h2.524l-1.3-.455c1.132-1.186,2.215-2.086,3.9-1.164a1.33,1.33,0,0,0,.587.075A12.054,12.054,0,0,1,34.41,15.6a4.521,4.521,0,0,0,3.106.914c1.111-.154,2.081.382,3.135.434a13.655,13.655,0,0,0,8.54-2.795,33.217,33.217,0,0,0,3.884-3.069A19.015,19.015,0,0,1,60.3,7.067c1.9-.631,3.921-.859,5.86-1.333,2.032-.5,4.038-.145,6.036-.373A5.026,5.026,0,0,1,75.485,6.4c2.149,1.332,4.189,2.836,6.324,4.192a8.244,8.244,0,0,0,3.308.962,12.647,12.647,0,0,0,6-.939c1.554-.547,3.03-1.322,4.53-2.019a66.477,66.477,0,0,0,7.159-4.174,20.456,20.456,0,0,1,7.755-3.194,13.611,13.611,0,0,0,2.553-.809c1.834-.67,3.73-.315,5.552-.421" transform="translate(0 0)"/>
    </g>
  </g>
</svg>
