<svg xmlns="http://www.w3.org/2000/svg" width="219.011" height="189.647" viewBox="0 0 219.011 189.647">
  <defs>
    <style>
      .cls-1, .cls-4, .cls-5 {
        fill: #a4ce9d;
      }

      .cls-1 {
        font-size: 29px;
        font-family: Coquette-Bold, Coquette;
        font-weight: 700;
        letter-spacing: 0.56em;
      }

      .cls-2, .cls-3, .cls-6, .cls-8 {
        fill: none;
      }

      .cls-2, .cls-3, .cls-4, .cls-6 {
        stroke: #96bf8f;
      }

      .cls-2, .cls-3, .cls-6 {
        stroke-linecap: round;
      }

      .cls-2 {
        stroke-width: 3.5px;
      }

      .cls-3 {
        stroke-width: 3px;
      }

      .cls-6 {
        stroke-width: 5px;
      }

      .cls-7, .cls-9 {
        stroke: none;
      }

      .cls-9 {
        fill: #96bf8f;
      }
    </style>
  </defs>
  <g id="logo" transform="translate(-231.378 -665.353)">
    <text id="sprillow" class="cls-1" transform="translate(236 847)"><tspan x="0" y="0">sprillow</tspan></text>
    <g id="Group_37" data-name="Group 37" transform="translate(309.677 693.406)">
      <path id="Path_12" data-name="Path 12" class="cls-2" d="M0,25.375a12.755,12.755,0,0,0,13.388-6.8C16.485,12.405,12.951.68,12.742,0h0" transform="translate(21.932 22.922) rotate(48)"/>
      <path id="Path_13" data-name="Path 13" class="cls-2" d="M0,.2C2.966-.558,9.436.648,12.383,6.788c2.864,5.968-.4,17.316-.6,17.975h0" transform="translate(56.894 40.309) rotate(132)"/>
      <path id="Path_14" data-name="Path 14" class="cls-2" d="M0,29.946c2.611.784,8.393-.942,11.19-8.429C13.91,14.241,11.343.781,11.19,0h0" transform="translate(22.383 41.896) rotate(48)"/>
      <path id="Path_16" data-name="Path 16" class="cls-2" d="M0,20.328c2.485.533,7.988-.639,10.651-5.721C13.239,9.667,10.8.53,10.651,0h0" transform="translate(23.094 8.222) rotate(48)"/>
      <path id="Path_17" data-name="Path 17" class="cls-2" d="M0,.117c2.485-.533,7.988.64,10.651,5.721,2.588,4.94.145,14.076,0,14.606h0" transform="translate(53.333 21.903) rotate(132)"/>
      <path id="Path_18" data-name="Path 18" class="cls-2" d="M0,15.271a1.88,1.88,0,0,0,.188.061c.777.308,2.715-.607,3.661-4.359C4.785,7.262,3.9.4,3.849,0h0" transform="translate(27.981 0.025) rotate(48)"/>
      <path id="Path_21" data-name="Path 21" class="cls-2" d="M0,0S6.7,2.149,9.707,7.889c2.923,5.579.164,15.9,0,16.5h0" transform="translate(55.074 78.368) rotate(132)"/>
      <path id="Path_24" data-name="Path 24" class="cls-2" d="M0,24.387S6.7,22.239,9.707,16.5c2.923-5.579.164-15.9,0-16.5h0" transform="translate(23.745 62.049) rotate(48)"/>
      <path id="Path_25" data-name="Path 25" class="cls-2" d="M0,0S4.827,1.548,6.994,5.684c2.106,4.02.118,11.455,0,11.886h0" transform="translate(48.095 93.618) rotate(132)"/>
      <path id="Path_26" data-name="Path 26" class="cls-2" d="M0,17.57s4.827-1.548,6.994-5.684C9.1,7.867,7.112.431,6.994,0h0" transform="translate(25.727 81.861) rotate(48)"/>
      <path id="Path_27" data-name="Path 27" class="cls-2" d="M0,.117A1.88,1.88,0,0,1,.188.055C.966-.253,2.9.662,3.849,4.415c.935,3.711.052,10.574,0,10.973h0" transform="translate(44.939 10.296) rotate(132)"/>
      <path id="Path_31" data-name="Path 31" class="cls-2" d="M0,.173C2.611-.611,8.393,1.115,11.19,8.6c2.719,7.277.152,20.737,0,21.517h0" transform="translate(60.637 62.049) rotate(132)"/>
    </g>
    <g id="Group_25" data-name="Group 25" transform="translate(230.891 666.797)">
      <g id="Group_32" data-name="Group 32" transform="translate(0 0)">
        <g id="Group_34" data-name="Group 34" transform="translate(109.823 0)">
          <g id="Group_20" data-name="Group 20" transform="translate(0)">
            <g id="Group_12" data-name="Group 12" transform="matrix(0.999, -0.035, 0.035, 0.999, 0, 3.194)">
              <path id="Path_8" data-name="Path 8" class="cls-3" d="M0,.748C11.447-2.643,36.793,4.82,49.058,37.181c11.921,31.455.668,89.636,0,93.012h0" transform="translate(0 4.564)"/>
              <path id="Path_10" data-name="Path 10" class="cls-3" d="M0,1.831C22.711-1.622,52.815-3.662,77.148,29.3S87.524,136.334,87.524,136.334h0" transform="translate(0 0)"/>
            </g>
          </g>
          <g id="Group_22" data-name="Group 22" transform="matrix(0.999, 0.035, -0.035, 0.999, 25.838, 7.477)">
            <g id="Ellipse_1" data-name="Ellipse 1" class="cls-4" transform="translate(25.772 22.268) rotate(31)">
              <ellipse class="cls-7" cx="6.966" cy="2.869" rx="6.966" ry="2.869"/>
              <ellipse class="cls-8" cx="6.966" cy="2.869" rx="6.466" ry="2.369"/>
            </g>
            <g id="Ellipse_2" data-name="Ellipse 2" class="cls-4" transform="matrix(-0.454, 0.891, -0.891, -0.454, 24.363, 36.642)">
              <ellipse class="cls-7" cx="6.966" cy="2.869" rx="6.966" ry="2.869"/>
              <ellipse class="cls-8" cx="6.966" cy="2.869" rx="6.466" ry="2.369"/>
            </g>
            <g id="Ellipse_3" data-name="Ellipse 3" class="cls-4" transform="matrix(0.695, 0.719, -0.719, 0.695, 35.05, 37.742)">
              <ellipse class="cls-7" cx="6.966" cy="2.869" rx="6.966" ry="2.869"/>
              <ellipse class="cls-8" cx="6.966" cy="2.869" rx="6.466" ry="2.369"/>
            </g>
            <g id="Ellipse_4" data-name="Ellipse 4" class="cls-4" transform="matrix(-0.682, 0.731, -0.731, -0.682, 30.398, 52.658)">
              <ellipse class="cls-7" cx="6.966" cy="2.869" rx="6.966" ry="2.869"/>
              <ellipse class="cls-8" cx="6.966" cy="2.869" rx="6.466" ry="2.369"/>
            </g>
            <g id="Ellipse_5" data-name="Ellipse 5" class="cls-4" transform="matrix(0.602, 0.799, -0.799, 0.602, 39.908, 56.326)">
              <ellipse class="cls-7" cx="6.966" cy="2.869" rx="6.966" ry="2.869"/>
              <ellipse class="cls-8" cx="6.966" cy="2.869" rx="6.466" ry="2.369"/>
            </g>
            <g id="Ellipse_6" data-name="Ellipse 6" class="cls-4" transform="translate(32.285 68.991) rotate(119)">
              <ellipse class="cls-7" cx="6.966" cy="2.869" rx="6.966" ry="2.869"/>
              <ellipse class="cls-8" cx="6.966" cy="2.869" rx="6.466" ry="2.369"/>
            </g>
            <g id="Ellipse_7" data-name="Ellipse 7" class="cls-4" transform="matrix(0.602, 0.799, -0.799, 0.602, 39.851, 74.241)">
              <ellipse class="cls-7" cx="6.966" cy="2.869" rx="6.966" ry="2.869"/>
              <ellipse class="cls-8" cx="6.966" cy="2.869" rx="6.466" ry="2.369"/>
            </g>
            <g id="Ellipse_8" data-name="Ellipse 8" class="cls-4" transform="matrix(0.602, 0.799, -0.799, 0.602, 40.612, 92.076)">
              <ellipse class="cls-7" cx="6.966" cy="2.869" rx="6.966" ry="2.869"/>
              <ellipse class="cls-8" cx="6.966" cy="2.869" rx="6.466" ry="2.369"/>
            </g>
            <g id="Ellipse_9" data-name="Ellipse 9" class="cls-4" transform="translate(31.859 87.316) rotate(119)">
              <ellipse class="cls-7" cx="6.966" cy="2.869" rx="6.966" ry="2.869"/>
              <ellipse class="cls-8" cx="6.966" cy="2.869" rx="6.466" ry="2.369"/>
            </g>
            <g id="Ellipse_10" data-name="Ellipse 10" class="cls-4" transform="matrix(0.966, 0.259, -0.259, 0.966, 15.084, 9.312)">
              <ellipse class="cls-7" cx="6.966" cy="2.869" rx="6.966" ry="2.869"/>
              <ellipse class="cls-8" cx="6.966" cy="2.869" rx="6.466" ry="2.369"/>
            </g>
            <g id="Ellipse_11" data-name="Ellipse 11" class="cls-4" transform="translate(15.943 22.148) rotate(106)">
              <ellipse class="cls-7" cx="6.966" cy="2.869" rx="6.966" ry="2.869"/>
              <ellipse class="cls-8" cx="6.966" cy="2.869" rx="6.466" ry="2.369"/>
            </g>
            <g id="Ellipse_12" data-name="Ellipse 12" class="cls-4" transform="translate(5.734 11.977) rotate(88)">
              <ellipse class="cls-7" cx="6.966" cy="2.869" rx="6.966" ry="2.869"/>
              <ellipse class="cls-8" cx="6.966" cy="2.869" rx="6.466" ry="2.369"/>
            </g>
            <g id="Ellipse_13" data-name="Ellipse 13" class="cls-4" transform="matrix(0.995, 0.105, -0.105, 0.995, 3.695, 0)">
              <ellipse class="cls-7" cx="6.966" cy="2.869" rx="6.966" ry="2.869"/>
              <ellipse class="cls-8" cx="6.966" cy="2.869" rx="6.466" ry="2.369"/>
            </g>
            <g id="Path_29" data-name="Path 29" class="cls-5" transform="matrix(0.602, 0.799, -0.799, 0.602, 41.184, 108.458)">
              <path class="cls-7" d="M 6.966387271881104 5.237022399902344 C 5.169377326965332 5.237022399902344 3.487577199935913 4.952022552490234 2.230777263641357 4.43452262878418 C 1.147017240524292 3.988262414932251 0.4999972581863403 3.402842283248901 0.4999972581863403 2.868512392044067 C 0.4999972581863403 2.334182500839233 1.147017240524292 1.748762369155884 2.230777263641357 1.302502393722534 C 3.487577199935913 0.7850024104118347 5.169377326965332 0.500002384185791 6.966387271881104 0.500002384185791 C 7.886457443237305 0.500002384185791 8.74748706817627 0.5764724016189575 9.758196830749512 0.7479423880577087 C 12.14549732208252 1.144882440567017 13.43277740478516 2.136702299118042 13.43277740478516 2.868512392044067 C 13.43277740478516 3.402842283248901 12.78575706481934 3.988262414932251 11.70199680328369 4.43452262878418 C 10.44519710540771 4.952022552490234 8.763397216796875 5.237022399902344 6.966387271881104 5.237022399902344 Z"/>
              <path class="cls-9" d="M 6.966387271881104 1.000002384185791 C 5.25828742980957 1.000002384185791 3.601607322692871 1.278772354125977 2.421156883239746 1.764842510223389 C 1.378477096557617 2.194182395935059 0.9999971389770508 2.660092353820801 0.9999971389770508 2.868512392044067 C 0.9999971389770508 3.076932430267334 1.378477096557617 3.542842388153076 2.421156883239746 3.972182273864746 C 3.601607322692871 4.458252429962158 5.25828742980957 4.737022399902344 6.966387271881104 4.737022399902344 C 8.674487113952637 4.737022399902344 10.33116722106934 4.458252429962158 11.51161766052246 3.972182273864746 C 12.55429744720459 3.542842388153076 12.93277740478516 3.076932430267334 12.93277740478516 2.868512392044067 C 12.93277740478516 2.478802442550659 11.84507751464844 1.601792335510254 9.674567222595215 1.24089241027832 C 8.692567825317383 1.074292182922363 7.857337474822998 1.000002384185791 6.966387271881104 1.000002384185791 M 6.966387271881104 2.384185791015625e-06 C 7.893617153167725 2.384185791015625e-06 8.778537750244141 0.07459259033203125 9.841827392578125 0.2549824714660645 C 12.13600730895996 0.6364421844482422 13.93277740478516 1.666082382202148 13.93277740478516 2.868512392044067 C 13.93277740478516 4.452752113342285 10.81381702423096 5.737022399902344 6.966387271881104 5.737022399902344 C 3.11895751953125 5.737022399902344 -2.86102294921875e-06 4.452752113342285 -2.86102294921875e-06 2.868512392044067 C -2.86102294921875e-06 1.284272193908691 3.11895751953125 2.384185791015625e-06 6.966387271881104 2.384185791015625e-06 Z"/>
            </g>
            <g id="Ellipse_17" data-name="Ellipse 17" class="cls-4" transform="translate(31.669 105.364) rotate(119)">
              <ellipse class="cls-7" cx="6.966" cy="2.869" rx="6.966" ry="2.869"/>
              <ellipse class="cls-8" cx="6.966" cy="2.869" rx="6.466" ry="2.369"/>
            </g>
            <g id="Path_30" data-name="Path 30" class="cls-5" transform="matrix(0.602, 0.799, -0.799, 0.602, 39.299, 124.925)">
              <path class="cls-7" d="M 6.966387271881104 5.237022399902344 C 5.169377326965332 5.237022399902344 3.487577199935913 4.952022552490234 2.230777263641357 4.43452262878418 C 1.147017240524292 3.988262414932251 0.4999972581863403 3.402842283248901 0.4999972581863403 2.868512392044067 C 0.4999972581863403 2.334182500839233 1.147017240524292 1.748762369155884 2.230777263641357 1.302502393722534 C 3.487577199935913 0.7850024104118347 5.169377326965332 0.500002384185791 6.966387271881104 0.500002384185791 C 7.886457443237305 0.500002384185791 8.74748706817627 0.5764724016189575 9.758196830749512 0.7479423880577087 C 12.14549732208252 1.144882440567017 13.43277740478516 2.136702299118042 13.43277740478516 2.868512392044067 C 13.43277740478516 3.402842283248901 12.78575706481934 3.988262414932251 11.70199680328369 4.43452262878418 C 10.44519710540771 4.952022552490234 8.763397216796875 5.237022399902344 6.966387271881104 5.237022399902344 Z"/>
              <path class="cls-9" d="M 6.966387271881104 1.000002384185791 C 5.25828742980957 1.000002384185791 3.601607322692871 1.278772354125977 2.421156883239746 1.764842510223389 C 1.378477096557617 2.194182395935059 0.9999971389770508 2.660092353820801 0.9999971389770508 2.868512392044067 C 0.9999971389770508 3.076932430267334 1.378477096557617 3.542842388153076 2.421156883239746 3.972182273864746 C 3.601607322692871 4.458252429962158 5.25828742980957 4.737022399902344 6.966387271881104 4.737022399902344 C 8.674487113952637 4.737022399902344 10.33116722106934 4.458252429962158 11.51161766052246 3.972182273864746 C 12.55429744720459 3.542842388153076 12.93277740478516 3.076932430267334 12.93277740478516 2.868512392044067 C 12.93277740478516 2.478802442550659 11.84507751464844 1.601792335510254 9.674567222595215 1.24089241027832 C 8.692567825317383 1.074292182922363 7.857337474822998 1.000002384185791 6.966387271881104 1.000002384185791 M 6.966387271881104 2.384185791015625e-06 C 7.893617153167725 2.384185791015625e-06 8.778537750244141 0.07459259033203125 9.841827392578125 0.2549824714660645 C 12.13600730895996 0.6364421844482422 13.93277740478516 1.666082382202148 13.93277740478516 2.868512392044067 C 13.93277740478516 4.452752113342285 10.81381702423096 5.737022399902344 6.966387271881104 5.737022399902344 C 3.11895751953125 5.737022399902344 -2.86102294921875e-06 4.452752113342285 -2.86102294921875e-06 2.868512392044067 C -2.86102294921875e-06 1.284272193908691 3.11895751953125 2.384185791015625e-06 6.966387271881104 2.384185791015625e-06 Z"/>
            </g>
            <g id="Ellipse_18" data-name="Ellipse 18" class="cls-4" transform="translate(30.632 122.622) rotate(119)">
              <ellipse class="cls-7" cx="6.966" cy="2.869" rx="6.966" ry="2.869"/>
              <ellipse class="cls-8" cx="6.966" cy="2.869" rx="6.466" ry="2.369"/>
            </g>
            <g id="Ellipse_19" data-name="Ellipse 19" class="cls-4" transform="matrix(-0.139, 0.99, -0.99, -0.139, 34.747, 133.73)">
              <ellipse class="cls-7" cx="6.966" cy="2.869" rx="6.966" ry="2.869"/>
              <ellipse class="cls-8" cx="6.966" cy="2.869" rx="6.466" ry="2.369"/>
            </g>
            <g id="Ellipse_20" data-name="Ellipse 20" class="cls-4" transform="matrix(0.602, 0.799, -0.799, 0.602, 40.612, 92.076)">
              <ellipse class="cls-7" cx="6.966" cy="2.869" rx="6.966" ry="2.869"/>
              <ellipse class="cls-8" cx="6.966" cy="2.869" rx="6.466" ry="2.369"/>
            </g>
          </g>
          <g id="Group_33" data-name="Group 33" transform="translate(58.026 6.282) rotate(-1)">
            <g id="Ellipse_1-2" data-name="Ellipse 1" class="cls-4" transform="translate(25.772 22.268) rotate(31)">
              <ellipse class="cls-7" cx="6.966" cy="2.869" rx="6.966" ry="2.869"/>
              <ellipse class="cls-8" cx="6.966" cy="2.869" rx="6.466" ry="2.369"/>
            </g>
            <g id="Ellipse_2-2" data-name="Ellipse 2" class="cls-4" transform="matrix(-0.454, 0.891, -0.891, -0.454, 24.363, 36.642)">
              <ellipse class="cls-7" cx="6.966" cy="2.869" rx="6.966" ry="2.869"/>
              <ellipse class="cls-8" cx="6.966" cy="2.869" rx="6.466" ry="2.369"/>
            </g>
            <g id="Ellipse_3-2" data-name="Ellipse 3" class="cls-4" transform="matrix(0.695, 0.719, -0.719, 0.695, 35.05, 37.742)">
              <ellipse class="cls-7" cx="6.966" cy="2.869" rx="6.966" ry="2.869"/>
              <ellipse class="cls-8" cx="6.966" cy="2.869" rx="6.466" ry="2.369"/>
            </g>
            <g id="Ellipse_4-2" data-name="Ellipse 4" class="cls-4" transform="matrix(-0.682, 0.731, -0.731, -0.682, 30.398, 52.658)">
              <ellipse class="cls-7" cx="6.966" cy="2.869" rx="6.966" ry="2.869"/>
              <ellipse class="cls-8" cx="6.966" cy="2.869" rx="6.466" ry="2.369"/>
            </g>
            <g id="Ellipse_5-2" data-name="Ellipse 5" class="cls-4" transform="matrix(0.602, 0.799, -0.799, 0.602, 39.908, 56.326)">
              <ellipse class="cls-7" cx="6.966" cy="2.869" rx="6.966" ry="2.869"/>
              <ellipse class="cls-8" cx="6.966" cy="2.869" rx="6.466" ry="2.369"/>
            </g>
            <g id="Ellipse_6-2" data-name="Ellipse 6" class="cls-4" transform="translate(32.285 68.991) rotate(119)">
              <ellipse class="cls-7" cx="6.966" cy="2.869" rx="6.966" ry="2.869"/>
              <ellipse class="cls-8" cx="6.966" cy="2.869" rx="6.466" ry="2.369"/>
            </g>
            <g id="Ellipse_7-2" data-name="Ellipse 7" class="cls-4" transform="matrix(0.602, 0.799, -0.799, 0.602, 39.851, 74.241)">
              <ellipse class="cls-7" cx="6.966" cy="2.869" rx="6.966" ry="2.869"/>
              <ellipse class="cls-8" cx="6.966" cy="2.869" rx="6.466" ry="2.369"/>
            </g>
            <g id="Ellipse_8-2" data-name="Ellipse 8" class="cls-4" transform="matrix(0.602, 0.799, -0.799, 0.602, 40.612, 92.076)">
              <ellipse class="cls-7" cx="6.966" cy="2.869" rx="6.966" ry="2.869"/>
              <ellipse class="cls-8" cx="6.966" cy="2.869" rx="6.466" ry="2.369"/>
            </g>
            <g id="Ellipse_9-2" data-name="Ellipse 9" class="cls-4" transform="translate(31.859 87.316) rotate(119)">
              <ellipse class="cls-7" cx="6.966" cy="2.869" rx="6.966" ry="2.869"/>
              <ellipse class="cls-8" cx="6.966" cy="2.869" rx="6.466" ry="2.369"/>
            </g>
            <g id="Ellipse_10-2" data-name="Ellipse 10" class="cls-4" transform="matrix(0.966, 0.259, -0.259, 0.966, 15.084, 9.312)">
              <ellipse class="cls-7" cx="6.966" cy="2.869" rx="6.966" ry="2.869"/>
              <ellipse class="cls-8" cx="6.966" cy="2.869" rx="6.466" ry="2.369"/>
            </g>
            <g id="Ellipse_11-2" data-name="Ellipse 11" class="cls-4" transform="translate(15.943 22.148) rotate(106)">
              <ellipse class="cls-7" cx="6.966" cy="2.869" rx="6.966" ry="2.869"/>
              <ellipse class="cls-8" cx="6.966" cy="2.869" rx="6.466" ry="2.369"/>
            </g>
            <g id="Ellipse_12-2" data-name="Ellipse 12" class="cls-4" transform="translate(5.734 11.977) rotate(88)">
              <ellipse class="cls-7" cx="6.966" cy="2.869" rx="6.966" ry="2.869"/>
              <ellipse class="cls-8" cx="6.966" cy="2.869" rx="6.466" ry="2.369"/>
            </g>
            <g id="Ellipse_13-2" data-name="Ellipse 13" class="cls-4" transform="matrix(0.995, 0.105, -0.105, 0.995, 3.695, 0)">
              <ellipse class="cls-7" cx="6.966" cy="2.869" rx="6.966" ry="2.869"/>
              <ellipse class="cls-8" cx="6.966" cy="2.869" rx="6.466" ry="2.369"/>
            </g>
            <g id="Path_29-2" data-name="Path 29" class="cls-5" transform="matrix(0.602, 0.799, -0.799, 0.602, 41.184, 108.458)">
              <path class="cls-7" d="M 6.966387271881104 5.237022399902344 C 5.169377326965332 5.237022399902344 3.487577199935913 4.952022552490234 2.230777263641357 4.43452262878418 C 1.147017240524292 3.988262414932251 0.4999972581863403 3.402842283248901 0.4999972581863403 2.868512392044067 C 0.4999972581863403 2.334182500839233 1.147017240524292 1.748762369155884 2.230777263641357 1.302502393722534 C 3.487577199935913 0.7850024104118347 5.169377326965332 0.500002384185791 6.966387271881104 0.500002384185791 C 7.886457443237305 0.500002384185791 8.74748706817627 0.5764724016189575 9.758196830749512 0.7479423880577087 C 12.14549732208252 1.144882440567017 13.43277740478516 2.136702299118042 13.43277740478516 2.868512392044067 C 13.43277740478516 3.402842283248901 12.78575706481934 3.988262414932251 11.70199680328369 4.43452262878418 C 10.44519710540771 4.952022552490234 8.763397216796875 5.237022399902344 6.966387271881104 5.237022399902344 Z"/>
              <path class="cls-9" d="M 6.966387271881104 1.000002384185791 C 5.25828742980957 1.000002384185791 3.601607322692871 1.278772354125977 2.421156883239746 1.764842510223389 C 1.378477096557617 2.194182395935059 0.9999971389770508 2.660092353820801 0.9999971389770508 2.868512392044067 C 0.9999971389770508 3.076932430267334 1.378477096557617 3.542842388153076 2.421156883239746 3.972182273864746 C 3.601607322692871 4.458252429962158 5.25828742980957 4.737022399902344 6.966387271881104 4.737022399902344 C 8.674487113952637 4.737022399902344 10.33116722106934 4.458252429962158 11.51161766052246 3.972182273864746 C 12.55429744720459 3.542842388153076 12.93277740478516 3.076932430267334 12.93277740478516 2.868512392044067 C 12.93277740478516 2.478802442550659 11.84507751464844 1.601792335510254 9.674567222595215 1.24089241027832 C 8.692567825317383 1.074292182922363 7.857337474822998 1.000002384185791 6.966387271881104 1.000002384185791 M 6.966387271881104 2.384185791015625e-06 C 7.893617153167725 2.384185791015625e-06 8.778537750244141 0.07459259033203125 9.841827392578125 0.2549824714660645 C 12.13600730895996 0.6364421844482422 13.93277740478516 1.666082382202148 13.93277740478516 2.868512392044067 C 13.93277740478516 4.452752113342285 10.81381702423096 5.737022399902344 6.966387271881104 5.737022399902344 C 3.11895751953125 5.737022399902344 -2.86102294921875e-06 4.452752113342285 -2.86102294921875e-06 2.868512392044067 C -2.86102294921875e-06 1.284272193908691 3.11895751953125 2.384185791015625e-06 6.966387271881104 2.384185791015625e-06 Z"/>
            </g>
            <g id="Ellipse_17-2" data-name="Ellipse 17" class="cls-4" transform="translate(31.669 105.364) rotate(119)">
              <ellipse class="cls-7" cx="6.966" cy="2.869" rx="6.966" ry="2.869"/>
              <ellipse class="cls-8" cx="6.966" cy="2.869" rx="6.466" ry="2.369"/>
            </g>
            <g id="Path_30-2" data-name="Path 30" class="cls-5" transform="matrix(0.602, 0.799, -0.799, 0.602, 39.299, 124.925)">
              <path class="cls-7" d="M 6.966387271881104 5.237022399902344 C 5.169377326965332 5.237022399902344 3.487577199935913 4.952022552490234 2.230777263641357 4.43452262878418 C 1.147017240524292 3.988262414932251 0.4999972581863403 3.402842283248901 0.4999972581863403 2.868512392044067 C 0.4999972581863403 2.334182500839233 1.147017240524292 1.748762369155884 2.230777263641357 1.302502393722534 C 3.487577199935913 0.7850024104118347 5.169377326965332 0.500002384185791 6.966387271881104 0.500002384185791 C 7.886457443237305 0.500002384185791 8.74748706817627 0.5764724016189575 9.758196830749512 0.7479423880577087 C 12.14549732208252 1.144882440567017 13.43277740478516 2.136702299118042 13.43277740478516 2.868512392044067 C 13.43277740478516 3.402842283248901 12.78575706481934 3.988262414932251 11.70199680328369 4.43452262878418 C 10.44519710540771 4.952022552490234 8.763397216796875 5.237022399902344 6.966387271881104 5.237022399902344 Z"/>
              <path class="cls-9" d="M 6.966387271881104 1.000002384185791 C 5.25828742980957 1.000002384185791 3.601607322692871 1.278772354125977 2.421156883239746 1.764842510223389 C 1.378477096557617 2.194182395935059 0.9999971389770508 2.660092353820801 0.9999971389770508 2.868512392044067 C 0.9999971389770508 3.076932430267334 1.378477096557617 3.542842388153076 2.421156883239746 3.972182273864746 C 3.601607322692871 4.458252429962158 5.25828742980957 4.737022399902344 6.966387271881104 4.737022399902344 C 8.674487113952637 4.737022399902344 10.33116722106934 4.458252429962158 11.51161766052246 3.972182273864746 C 12.55429744720459 3.542842388153076 12.93277740478516 3.076932430267334 12.93277740478516 2.868512392044067 C 12.93277740478516 2.478802442550659 11.84507751464844 1.601792335510254 9.674567222595215 1.24089241027832 C 8.692567825317383 1.074292182922363 7.857337474822998 1.000002384185791 6.966387271881104 1.000002384185791 M 6.966387271881104 2.384185791015625e-06 C 7.893617153167725 2.384185791015625e-06 8.778537750244141 0.07459259033203125 9.841827392578125 0.2549824714660645 C 12.13600730895996 0.6364421844482422 13.93277740478516 1.666082382202148 13.93277740478516 2.868512392044067 C 13.93277740478516 4.452752113342285 10.81381702423096 5.737022399902344 6.966387271881104 5.737022399902344 C 3.11895751953125 5.737022399902344 -2.86102294921875e-06 4.452752113342285 -2.86102294921875e-06 2.868512392044067 C -2.86102294921875e-06 1.284272193908691 3.11895751953125 2.384185791015625e-06 6.966387271881104 2.384185791015625e-06 Z"/>
            </g>
            <g id="Ellipse_18-2" data-name="Ellipse 18" class="cls-4" transform="translate(30.632 122.622) rotate(119)">
              <ellipse class="cls-7" cx="6.966" cy="2.869" rx="6.966" ry="2.869"/>
              <ellipse class="cls-8" cx="6.966" cy="2.869" rx="6.466" ry="2.369"/>
            </g>
            <g id="Ellipse_19-2" data-name="Ellipse 19" class="cls-4" transform="matrix(-0.139, 0.99, -0.99, -0.139, 34.747, 133.73)">
              <ellipse class="cls-7" cx="6.966" cy="2.869" rx="6.966" ry="2.869"/>
              <ellipse class="cls-8" cx="6.966" cy="2.869" rx="6.466" ry="2.369"/>
            </g>
            <g id="Ellipse_20-2" data-name="Ellipse 20" class="cls-4" transform="matrix(0.602, 0.799, -0.799, 0.602, 40.612, 92.076)">
              <ellipse class="cls-7" cx="6.966" cy="2.869" rx="6.966" ry="2.869"/>
              <ellipse class="cls-8" cx="6.966" cy="2.869" rx="6.466" ry="2.369"/>
            </g>
          </g>
        </g>
        <g id="Group_35" data-name="Group 35" transform="translate(0)">
          <g id="Group_20-2" data-name="Group 20" transform="translate(13.953 0)">
            <g id="Group_12-2" data-name="Group 12" transform="matrix(-0.999, -0.035, 0.035, -0.999, 91.453, 139.445)">
              <path id="Path_8-2" data-name="Path 8" class="cls-3" d="M0,129.445c11.447,3.391,36.793-4.072,49.058-36.433,11.921-31.455.668-89.636,0-93.012h0" transform="translate(0 1.577)"/>
              <path id="Path_10-2" data-name="Path 10" class="cls-3" d="M0,134.5c22.711,3.454,52.815,5.494,77.149-27.468S87.524,0,87.524,0h0" transform="translate(0 0)"/>
            </g>
          </g>
          <g id="Group_22-2" data-name="Group 22" transform="matrix(-0.999, 0.035, -0.035, -0.999, 89.474, 154.914)">
            <g id="Ellipse_1-3" data-name="Ellipse 1" class="cls-4" transform="translate(22.818 120.342) rotate(-31)">
              <ellipse class="cls-7" cx="6.966" cy="2.869" rx="6.966" ry="2.869"/>
              <ellipse class="cls-8" cx="6.966" cy="2.869" rx="6.466" ry="2.369"/>
            </g>
            <g id="Ellipse_2-3" data-name="Ellipse 2" class="cls-4" transform="matrix(-0.454, -0.891, 0.891, -0.454, 19.252, 113.49)">
              <ellipse class="cls-7" cx="6.966" cy="2.869" rx="6.966" ry="2.869"/>
              <ellipse class="cls-8" cx="6.966" cy="2.869" rx="6.466" ry="2.369"/>
            </g>
            <g id="Ellipse_3-3" data-name="Ellipse 3" class="cls-4" transform="matrix(0.695, -0.719, 0.719, 0.695, 30.924, 105.8)">
              <ellipse class="cls-7" cx="6.966" cy="2.869" rx="6.966" ry="2.869"/>
              <ellipse class="cls-8" cx="6.966" cy="2.869" rx="6.466" ry="2.369"/>
            </g>
            <g id="Ellipse_4-3" data-name="Ellipse 4" class="cls-4" transform="translate(26.202 98.782) rotate(-133)">
              <ellipse class="cls-7" cx="6.966" cy="2.869" rx="6.966" ry="2.869"/>
              <ellipse class="cls-8" cx="6.966" cy="2.869" rx="6.466" ry="2.369"/>
            </g>
            <g id="Ellipse_5-3" data-name="Ellipse 5" class="cls-4" transform="matrix(0.602, -0.799, 0.799, 0.602, 35.326, 87.748)">
              <ellipse class="cls-7" cx="6.966" cy="2.869" rx="6.966" ry="2.869"/>
              <ellipse class="cls-8" cx="6.966" cy="2.869" rx="6.466" ry="2.369"/>
            </g>
            <g id="Ellipse_6-3" data-name="Ellipse 6" class="cls-4" transform="matrix(-0.485, -0.875, 0.875, -0.485, 27.267, 81.317)">
              <ellipse class="cls-7" cx="6.966" cy="2.869" rx="6.966" ry="2.869"/>
              <ellipse class="cls-8" cx="6.966" cy="2.869" rx="6.466" ry="2.369"/>
            </g>
            <g id="Ellipse_7-3" data-name="Ellipse 7" class="cls-4" transform="matrix(0.602, -0.799, 0.799, 0.602, 35.269, 69.833)">
              <ellipse class="cls-7" cx="6.966" cy="2.869" rx="6.966" ry="2.869"/>
              <ellipse class="cls-8" cx="6.966" cy="2.869" rx="6.466" ry="2.369"/>
            </g>
            <g id="Ellipse_8-3" data-name="Ellipse 8" class="cls-4" transform="matrix(0.602, -0.799, 0.799, 0.602, 36.03, 51.998)">
              <ellipse class="cls-7" cx="6.966" cy="2.869" rx="6.966" ry="2.869"/>
              <ellipse class="cls-8" cx="6.966" cy="2.869" rx="6.466" ry="2.369"/>
            </g>
            <g id="Ellipse_9-3" data-name="Ellipse 9" class="cls-4" transform="matrix(-0.485, -0.875, 0.875, -0.485, 26.841, 62.993)">
              <ellipse class="cls-7" cx="6.966" cy="2.869" rx="6.966" ry="2.869"/>
              <ellipse class="cls-8" cx="6.966" cy="2.869" rx="6.466" ry="2.369"/>
            </g>
            <g id="Ellipse_10-3" data-name="Ellipse 10" class="cls-4" transform="matrix(0.966, -0.259, 0.259, 0.966, 13.599, 132.673)">
              <ellipse class="cls-7" cx="6.966" cy="2.869" rx="6.966" ry="2.869"/>
              <ellipse class="cls-8" cx="6.966" cy="2.869" rx="6.466" ry="2.369"/>
            </g>
            <g id="Ellipse_11-3" data-name="Ellipse 11" class="cls-4" transform="translate(10.428 126.96) rotate(-106)">
              <ellipse class="cls-7" cx="6.966" cy="2.869" rx="6.966" ry="2.869"/>
              <ellipse class="cls-8" cx="6.966" cy="2.869" rx="6.466" ry="2.369"/>
            </g>
            <g id="Ellipse_12-3" data-name="Ellipse 12" class="cls-4" transform="matrix(0.035, -0.999, 0.999, 0.035, 0, 135.35)">
              <ellipse class="cls-7" cx="6.966" cy="2.869" rx="6.966" ry="2.869"/>
              <ellipse class="cls-8" cx="6.966" cy="2.869" rx="6.466" ry="2.369"/>
            </g>
            <g id="Ellipse_13-3" data-name="Ellipse 13" class="cls-4" transform="matrix(0.995, -0.105, 0.105, 0.995, 3.095, 141.821)">
              <ellipse class="cls-7" cx="6.966" cy="2.869" rx="6.966" ry="2.869"/>
              <ellipse class="cls-8" cx="6.966" cy="2.869" rx="6.466" ry="2.369"/>
            </g>
            <g id="Path_29-3" data-name="Path 29" class="cls-5" transform="matrix(0.602, -0.799, 0.799, 0.602, 36.603, 35.616)">
              <path class="cls-7" d="M 6.966391563415527 5.237034797668457 C 5.169391632080078 5.237034797668457 3.487581491470337 4.952024936676025 2.230781555175781 4.434514999389648 C 1.147021532058716 3.988264799118042 0.5000015497207642 3.402844667434692 0.5000015497207642 2.868514776229858 C 0.5000015497207642 2.334184885025024 1.147021532058716 1.748764753341675 2.230781555175781 1.302504777908325 C 3.487581491470337 0.7850047945976257 5.169391632080078 0.500004768371582 6.966391563415527 0.500004768371582 C 8.763401985168457 0.500004768371582 10.4452018737793 0.7850047945976257 11.70200157165527 1.302514791488647 C 12.78576183319092 1.748764753341675 13.43278121948242 2.334194660186768 13.43278121948242 2.868524789810181 C 13.43278121948242 3.600334882736206 12.14550113677979 4.592154979705811 9.759831428527832 4.988824844360352 C 8.747501373291016 5.16056489944458 7.886471748352051 5.237034797668457 6.966391563415527 5.237034797668457 Z"/>
              <path class="cls-9" d="M 6.966391563415527 5.737034797668457 L 6.966391563415527 4.737034797668457 C 7.857341766357422 4.737034797668457 8.692581176757812 4.662744998931885 9.677821159362793 4.49559497833252 C 11.8450813293457 4.135234832763672 12.93278121948242 3.258234739303589 12.93278121948242 2.868524789810181 C 12.93278121948242 2.660104751586914 12.55430126190186 2.194194793701172 11.51162147521973 1.764854788780212 C 10.33116149902344 1.27878475189209 8.674491882324219 1.000004768371582 6.966351509094238 1.000004768371582 C 5.258391380310059 1.000004768371582 3.601771593093872 1.278794765472412 2.421261548995972 1.764884829521179 C 1.378501534461975 2.194254875183105 1.000001549720764 2.660134792327881 1.000001549720764 2.868514776229858 C 1.000001549720764 3.076924800872803 1.378481507301331 3.542834758758545 2.421161651611328 3.972174882888794 C 3.601621627807617 4.458254814147949 5.258291721343994 4.737034797668457 6.966391563415527 4.737034797668457 L 6.966391563415527 5.737034797668457 M 6.966391563415527 5.737034797668457 C 3.118961572647095 5.737024784088135 1.563415480632102e-06 4.452744960784912 1.563415480632102e-06 2.868514776229858 C 1.563415480632102e-06 1.284274816513062 3.118961572647095 -5.223770131124184e-06 6.966391563415527 4.776230071001919e-06 C 10.81382179260254 4.776230071001919e-06 13.93278121948242 1.284284830093384 13.93278121948242 2.868524789810181 C 13.93278121948242 4.0709547996521 12.13601112365723 5.100594997406006 9.841841697692871 5.482054710388184 C 8.77855110168457 5.662444591522217 7.893621444702148 5.737034797668457 6.966391563415527 5.737034797668457 Z"/>
            </g>
            <g id="Ellipse_17-3" data-name="Ellipse 17" class="cls-4" transform="matrix(-0.485, -0.875, 0.875, -0.485, 26.652, 44.944)">
              <ellipse class="cls-7" cx="6.966" cy="2.869" rx="6.966" ry="2.869"/>
              <ellipse class="cls-8" cx="6.966" cy="2.869" rx="6.466" ry="2.369"/>
            </g>
            <g id="Path_30-3" data-name="Path 30" class="cls-5" transform="matrix(0.602, -0.799, 0.799, 0.602, 34.717, 19.149)">
              <path class="cls-7" d="M 6.966391563415527 5.237034797668457 C 5.169391632080078 5.237034797668457 3.487581491470337 4.952024936676025 2.230781555175781 4.434514999389648 C 1.147021532058716 3.988264799118042 0.5000015497207642 3.402844667434692 0.5000015497207642 2.868514776229858 C 0.5000015497207642 2.334184885025024 1.147021532058716 1.748764753341675 2.230781555175781 1.302504777908325 C 3.487581491470337 0.7850047945976257 5.169391632080078 0.500004768371582 6.966391563415527 0.500004768371582 C 8.763401985168457 0.500004768371582 10.4452018737793 0.7850047945976257 11.70200157165527 1.302514791488647 C 12.78576183319092 1.748764753341675 13.43278121948242 2.334194660186768 13.43278121948242 2.868524789810181 C 13.43278121948242 3.600334882736206 12.14550113677979 4.592154979705811 9.759831428527832 4.988824844360352 C 8.747501373291016 5.16056489944458 7.886471748352051 5.237034797668457 6.966391563415527 5.237034797668457 Z"/>
              <path class="cls-9" d="M 6.966391563415527 5.737034797668457 L 6.966391563415527 4.737034797668457 C 7.857341766357422 4.737034797668457 8.692581176757812 4.662744998931885 9.677821159362793 4.49559497833252 C 11.8450813293457 4.135234832763672 12.93278121948242 3.258234739303589 12.93278121948242 2.868524789810181 C 12.93278121948242 2.660104751586914 12.55430126190186 2.194194793701172 11.51162147521973 1.764854788780212 C 10.33116149902344 1.27878475189209 8.674491882324219 1.000004768371582 6.966351509094238 1.000004768371582 C 5.258391380310059 1.000004768371582 3.601771593093872 1.278794765472412 2.421261548995972 1.764884829521179 C 1.378501534461975 2.194254875183105 1.000001549720764 2.660134792327881 1.000001549720764 2.868514776229858 C 1.000001549720764 3.076924800872803 1.378481507301331 3.542834758758545 2.421161651611328 3.972174882888794 C 3.601621627807617 4.458254814147949 5.258291721343994 4.737034797668457 6.966391563415527 4.737034797668457 L 6.966391563415527 5.737034797668457 M 6.966391563415527 5.737034797668457 C 3.118961572647095 5.737024784088135 1.563415480632102e-06 4.452744960784912 1.563415480632102e-06 2.868514776229858 C 1.563415480632102e-06 1.284274816513062 3.118961572647095 -5.223770131124184e-06 6.966391563415527 4.776230071001919e-06 C 10.81382179260254 4.776230071001919e-06 13.93278121948242 1.284284830093384 13.93278121948242 2.868524789810181 C 13.93278121948242 4.0709547996521 12.13601112365723 5.100594997406006 9.841841697692871 5.482054710388184 C 8.77855110168457 5.662444591522217 7.893621444702148 5.737034797668457 6.966391563415527 5.737034797668457 Z"/>
            </g>
            <g id="Ellipse_18-3" data-name="Ellipse 18" class="cls-4" transform="matrix(-0.485, -0.875, 0.875, -0.485, 25.614, 27.686)">
              <ellipse class="cls-7" cx="6.966" cy="2.869" rx="6.966" ry="2.869"/>
              <ellipse class="cls-8" cx="6.966" cy="2.869" rx="6.466" ry="2.369"/>
            </g>
            <g id="Ellipse_19-3" data-name="Ellipse 19" class="cls-4" transform="translate(29.066 14.596) rotate(-98)">
              <ellipse class="cls-7" cx="6.966" cy="2.869" rx="6.966" ry="2.869"/>
              <ellipse class="cls-8" cx="6.966" cy="2.869" rx="6.466" ry="2.369"/>
            </g>
            <g id="Ellipse_20-3" data-name="Ellipse 20" class="cls-4" transform="matrix(0.602, -0.799, 0.799, 0.602, 36.031, 51.998)">
              <ellipse class="cls-7" cx="6.966" cy="2.869" rx="6.966" ry="2.869"/>
              <ellipse class="cls-8" cx="6.966" cy="2.869" rx="6.466" ry="2.369"/>
            </g>
          </g>
          <g id="Group_33-2" data-name="Group 33" transform="matrix(-1, -0.017, 0.017, -1, 49.562, 153.787)">
            <g id="Ellipse_1-4" data-name="Ellipse 1" class="cls-4" transform="translate(22.818 120.342) rotate(-31)">
              <ellipse class="cls-7" cx="6.966" cy="2.869" rx="6.966" ry="2.869"/>
              <ellipse class="cls-8" cx="6.966" cy="2.869" rx="6.466" ry="2.369"/>
            </g>
            <g id="Ellipse_2-4" data-name="Ellipse 2" class="cls-4" transform="matrix(-0.454, -0.891, 0.891, -0.454, 19.252, 113.49)">
              <ellipse class="cls-7" cx="6.966" cy="2.869" rx="6.966" ry="2.869"/>
              <ellipse class="cls-8" cx="6.966" cy="2.869" rx="6.466" ry="2.369"/>
            </g>
            <g id="Ellipse_3-4" data-name="Ellipse 3" class="cls-4" transform="matrix(0.695, -0.719, 0.719, 0.695, 30.924, 105.8)">
              <ellipse class="cls-7" cx="6.966" cy="2.869" rx="6.966" ry="2.869"/>
              <ellipse class="cls-8" cx="6.966" cy="2.869" rx="6.466" ry="2.369"/>
            </g>
            <g id="Ellipse_4-4" data-name="Ellipse 4" class="cls-4" transform="translate(26.202 98.782) rotate(-133)">
              <ellipse class="cls-7" cx="6.966" cy="2.869" rx="6.966" ry="2.869"/>
              <ellipse class="cls-8" cx="6.966" cy="2.869" rx="6.466" ry="2.369"/>
            </g>
            <g id="Ellipse_5-4" data-name="Ellipse 5" class="cls-4" transform="matrix(0.602, -0.799, 0.799, 0.602, 35.326, 87.748)">
              <ellipse class="cls-7" cx="6.966" cy="2.869" rx="6.966" ry="2.869"/>
              <ellipse class="cls-8" cx="6.966" cy="2.869" rx="6.466" ry="2.369"/>
            </g>
            <g id="Ellipse_6-4" data-name="Ellipse 6" class="cls-4" transform="matrix(-0.485, -0.875, 0.875, -0.485, 27.267, 81.317)">
              <ellipse class="cls-7" cx="6.966" cy="2.869" rx="6.966" ry="2.869"/>
              <ellipse class="cls-8" cx="6.966" cy="2.869" rx="6.466" ry="2.369"/>
            </g>
            <g id="Ellipse_7-4" data-name="Ellipse 7" class="cls-4" transform="matrix(0.602, -0.799, 0.799, 0.602, 35.269, 69.833)">
              <ellipse class="cls-7" cx="6.966" cy="2.869" rx="6.966" ry="2.869"/>
              <ellipse class="cls-8" cx="6.966" cy="2.869" rx="6.466" ry="2.369"/>
            </g>
            <g id="Ellipse_8-4" data-name="Ellipse 8" class="cls-4" transform="matrix(0.602, -0.799, 0.799, 0.602, 36.03, 51.998)">
              <ellipse class="cls-7" cx="6.966" cy="2.869" rx="6.966" ry="2.869"/>
              <ellipse class="cls-8" cx="6.966" cy="2.869" rx="6.466" ry="2.369"/>
            </g>
            <g id="Ellipse_9-4" data-name="Ellipse 9" class="cls-4" transform="matrix(-0.485, -0.875, 0.875, -0.485, 26.841, 62.993)">
              <ellipse class="cls-7" cx="6.966" cy="2.869" rx="6.966" ry="2.869"/>
              <ellipse class="cls-8" cx="6.966" cy="2.869" rx="6.466" ry="2.369"/>
            </g>
            <g id="Ellipse_10-4" data-name="Ellipse 10" class="cls-4" transform="matrix(0.966, -0.259, 0.259, 0.966, 13.599, 132.673)">
              <ellipse class="cls-7" cx="6.966" cy="2.869" rx="6.966" ry="2.869"/>
              <ellipse class="cls-8" cx="6.966" cy="2.869" rx="6.466" ry="2.369"/>
            </g>
            <g id="Ellipse_11-4" data-name="Ellipse 11" class="cls-4" transform="translate(10.428 126.96) rotate(-106)">
              <ellipse class="cls-7" cx="6.966" cy="2.869" rx="6.966" ry="2.869"/>
              <ellipse class="cls-8" cx="6.966" cy="2.869" rx="6.466" ry="2.369"/>
            </g>
            <g id="Ellipse_12-4" data-name="Ellipse 12" class="cls-4" transform="matrix(0.035, -0.999, 0.999, 0.035, 0, 135.35)">
              <ellipse class="cls-7" cx="6.966" cy="2.869" rx="6.966" ry="2.869"/>
              <ellipse class="cls-8" cx="6.966" cy="2.869" rx="6.466" ry="2.369"/>
            </g>
            <g id="Ellipse_13-4" data-name="Ellipse 13" class="cls-4" transform="matrix(0.995, -0.105, 0.105, 0.995, 3.095, 141.821)">
              <ellipse class="cls-7" cx="6.966" cy="2.869" rx="6.966" ry="2.869"/>
              <ellipse class="cls-8" cx="6.966" cy="2.869" rx="6.466" ry="2.369"/>
            </g>
            <g id="Path_29-4" data-name="Path 29" class="cls-5" transform="matrix(0.602, -0.799, 0.799, 0.602, 36.603, 35.616)">
              <path class="cls-7" d="M 6.966392040252686 5.237034320831299 C 5.169382095336914 5.237034320831299 3.487581968307495 4.952024459838867 2.230782032012939 4.43451452255249 C 1.147022008895874 3.988264560699463 0.5000020265579224 3.40283465385437 0.5000020265579224 2.868504524230957 C 0.5000020265579224 2.334174633026123 1.147022008895874 1.748754501342773 2.230782032012939 1.302504539489746 C 3.487581968307495 0.7850045561790466 5.169392108917236 0.5000045299530029 6.966392040252686 0.5000045299530029 C 8.763401985168457 0.5000045299530029 10.4452018737793 0.7850045561790466 11.70200157165527 1.302514553070068 C 12.78576183319092 1.748764514923096 13.43278217315674 2.334194421768188 13.43278217315674 2.868524551391602 C 13.43278217315674 3.600334644317627 12.1455020904541 4.592154502868652 9.759832382202148 4.988824367523193 C 8.747502326965332 5.160564422607422 7.886472225189209 5.237034320831299 6.966392040252686 5.237034320831299 Z"/>
              <path class="cls-9" d="M 6.966392040252686 5.737034320831299 L 6.966392040252686 4.737034320831299 C 7.85734224319458 4.737034320831299 8.692582130432129 4.662744522094727 9.677822113037109 4.495594501495361 C 11.84508228302002 4.135234355926514 12.93278217315674 3.25823450088501 12.93278217315674 2.868524551391602 C 12.93278217315674 2.660104513168335 12.55430221557617 2.194194555282593 11.51162242889404 1.764854550361633 C 10.33116245269775 1.278784513473511 8.674491882324219 1.000004529953003 6.966351985931396 1.000004529953003 C 5.258391857147217 1.000004529953003 3.60177206993103 1.278794527053833 2.42126202583313 1.7648845911026 C 1.378502011299133 2.194254636764526 1.000002026557922 2.660124540328979 1.000002026557922 2.868504524230957 C 1.000002026557922 3.076924562454224 1.378481984138489 3.542834520339966 2.421162128448486 3.972174644470215 C 3.601622104644775 4.458254337310791 5.258292198181152 4.737034320831299 6.966392040252686 4.737034320831299 L 6.966392040252686 5.737034320831299 M 6.966392040252686 5.737034320831299 C 3.118962049484253 5.737024307250977 2.040252638835227e-06 4.452744483947754 2.040252638835227e-06 2.868504524230957 C 2.040252638835227e-06 1.284274578094482 3.118962049484253 -5.462188710225746e-06 6.966392040252686 4.537811491900356e-06 C 10.81382179260254 4.537811491900356e-06 13.93278217315674 1.284284591674805 13.93278217315674 2.868524551391602 C 13.93278217315674 4.070954322814941 12.13601207733154 5.100594520568848 9.841841697692871 5.482054710388184 C 8.778552055358887 5.662444591522217 7.893621921539307 5.737034320831299 6.966392040252686 5.737034320831299 Z"/>
            </g>
            <g id="Ellipse_17-4" data-name="Ellipse 17" class="cls-4" transform="matrix(-0.485, -0.875, 0.875, -0.485, 26.652, 44.944)">
              <ellipse class="cls-7" cx="6.966" cy="2.869" rx="6.966" ry="2.869"/>
              <ellipse class="cls-8" cx="6.966" cy="2.869" rx="6.466" ry="2.369"/>
            </g>
            <g id="Path_30-4" data-name="Path 30" class="cls-5" transform="matrix(0.602, -0.799, 0.799, 0.602, 34.717, 19.149)">
              <path class="cls-7" d="M 6.966392040252686 5.237034320831299 C 5.169382095336914 5.237034320831299 3.487581968307495 4.952024459838867 2.230782032012939 4.43451452255249 C 1.147022008895874 3.988264560699463 0.5000020265579224 3.40283465385437 0.5000020265579224 2.868504524230957 C 0.5000020265579224 2.334174633026123 1.147022008895874 1.748754501342773 2.230782032012939 1.302504539489746 C 3.487581968307495 0.7850045561790466 5.169392108917236 0.5000045299530029 6.966392040252686 0.5000045299530029 C 8.763401985168457 0.5000045299530029 10.4452018737793 0.7850045561790466 11.70200157165527 1.302514553070068 C 12.78576183319092 1.748764514923096 13.43278217315674 2.334194421768188 13.43278217315674 2.868524551391602 C 13.43278217315674 3.600334644317627 12.1455020904541 4.592154502868652 9.759832382202148 4.988824367523193 C 8.747502326965332 5.160564422607422 7.886472225189209 5.237034320831299 6.966392040252686 5.237034320831299 Z"/>
              <path class="cls-9" d="M 6.966392040252686 5.737034320831299 L 6.966392040252686 4.737034320831299 C 7.85734224319458 4.737034320831299 8.692582130432129 4.662744522094727 9.677822113037109 4.495594501495361 C 11.84508228302002 4.135234355926514 12.93278217315674 3.25823450088501 12.93278217315674 2.868524551391602 C 12.93278217315674 2.660104513168335 12.55430221557617 2.194194555282593 11.51162242889404 1.764854550361633 C 10.33116245269775 1.278784513473511 8.674491882324219 1.000004529953003 6.966351985931396 1.000004529953003 C 5.258391857147217 1.000004529953003 3.60177206993103 1.278794527053833 2.42126202583313 1.7648845911026 C 1.378502011299133 2.194254636764526 1.000002026557922 2.660124540328979 1.000002026557922 2.868504524230957 C 1.000002026557922 3.076924562454224 1.378481984138489 3.542834520339966 2.421162128448486 3.972174644470215 C 3.601622104644775 4.458254337310791 5.258292198181152 4.737034320831299 6.966392040252686 4.737034320831299 L 6.966392040252686 5.737034320831299 M 6.966392040252686 5.737034320831299 C 3.118962049484253 5.737024307250977 2.040252638835227e-06 4.452744483947754 2.040252638835227e-06 2.868504524230957 C 2.040252638835227e-06 1.284274578094482 3.118962049484253 -5.462188710225746e-06 6.966392040252686 4.537811491900356e-06 C 10.81382179260254 4.537811491900356e-06 13.93278217315674 1.284284591674805 13.93278217315674 2.868524551391602 C 13.93278217315674 4.070954322814941 12.13601207733154 5.100594520568848 9.841841697692871 5.482054710388184 C 8.778552055358887 5.662444591522217 7.893621921539307 5.737034320831299 6.966392040252686 5.737034320831299 Z"/>
            </g>
            <g id="Ellipse_18-4" data-name="Ellipse 18" class="cls-4" transform="matrix(-0.485, -0.875, 0.875, -0.485, 25.614, 27.686)">
              <ellipse class="cls-7" cx="6.966" cy="2.869" rx="6.966" ry="2.869"/>
              <ellipse class="cls-8" cx="6.966" cy="2.869" rx="6.466" ry="2.369"/>
            </g>
            <g id="Ellipse_19-4" data-name="Ellipse 19" class="cls-4" transform="translate(29.066 14.596) rotate(-98)">
              <ellipse class="cls-7" cx="6.966" cy="2.869" rx="6.966" ry="2.869"/>
              <ellipse class="cls-8" cx="6.966" cy="2.869" rx="6.466" ry="2.369"/>
            </g>
            <g id="Ellipse_20-4" data-name="Ellipse 20" class="cls-4" transform="matrix(0.602, -0.799, 0.799, 0.602, 36.031, 51.998)">
              <ellipse class="cls-7" cx="6.966" cy="2.869" rx="6.966" ry="2.869"/>
              <ellipse class="cls-8" cx="6.966" cy="2.869" rx="6.466" ry="2.369"/>
            </g>
          </g>
        </g>
      </g>
    </g>
    <path id="Path_28" data-name="Path 28" class="cls-6" d="M.6,0V139.765" transform="translate(340.286 673.44)"/>
  </g>
</svg>
